<?xml version="1.0" encoding="UTF-8"?>
<svg id="logo" xmlns="http://www.w3.org/2000/svg" version="1.1" viewBox="0 0 904.88 899.33">
  <!-- Generator: Adobe Illustrator 30.0.0, SVG Export Plug-In . SVG Version: 2.1.1 Build 123)  -->
  <defs>
    <style>
      .st0 {
        fill: #fff;
        fill-rule: evenodd;
      }
    </style>
  </defs>
  <path class="st0" d="M431.67.85c69.23-8.49,354.04,47.33,252.01,123C480.95,266.38-159.78,99.88,431.67.85Z"/>
  <path class="st0" d="M155.67,108.85c-65.96,204.08,295.86,154.03,412.99,128,68.15-27.56,167.93-41.8,186.01-121,33.48,33.11,100.83,88.81,54.99,140-119.64,136.17-414.89,100.74-575.99,54.01-128.36-39.9-214.49-92.07-78-201.01h0Z"/>
  <path class="st0" d="M856.67,255.85C1065.84,616.37,149.83,565.33,29.68,391.86c-34.75-32.41.88-92.44,12.99-129.01-13.38,128.23,157.69,164.81,256,175.01,138.01,16.35,514.89-29.49,558.01-182h-.01Z"/>
  <path class="st0" d="M899.67,429.85c78.99,373.17-764.55,336.61-888,106.01-6.05-22.34-17.59-65.66-8-89.01,17.95,91.42,100.24,125.92,183,156,166.95,70.74,622.21-9.31,713-173h0Z"/>
  <path class="st0" d="M870.67,615.85c-94.18,285.6-644.9,276.32-811,51.02-2.36-4.5-13.47-15.57-9.01-18.02,33.31,41.25,75.11,68.35,127,86,205.89,78.22,542.39,51.79,693-119h.01Z"/>
  <path class="st0" d="M742.67,788.85c-134.82,141.36-409.84,146.75-562,18,166.89,82.25,409.98,75.81,562-18Z"/>
</svg>