<?xml version="1.0" encoding="UTF-8"?>
<svg id="Layer_2" xmlns="http://www.w3.org/2000/svg" version="1.1" viewBox="0 0 5000 4000">
  <!-- Generator: Adobe Illustrator 29.6.1, SVG Export Plug-In . SVG Version: 2.1.1 Build 9)  -->
  <defs>
    <style>
      .st0 {
        fill: none;
      }

      .st1 {
        fill: #fff;
        fill-rule: evenodd;
      }
    </style>
  </defs>
  <g id="Layer_1-2">
    <g id="spriteSheetIntro">
      <path id="mainBox" class="st0" d="M0,0h5000v4000H0V0Z"/>
      <path class="st1" d="M1373.6,65c2.5,0,3.7.1,5,1-7.4,1.1-29.4,12.9-35,10,5.3-.8,26.6-7.8,30-11Z"/>
      <path class="st1" d="M1174.6,206c-6,.9-9.2,2.9-17,3v-2c6.5-6,12.2-16.7,20-21,.3-.3.7-.7,1-1v2c-3.7,3.8-4.1,11.4-4,19Z"/>
      <path class="st1" d="M1082.6,340c1.7-5,3.3-10,5-15h1v8c.8,1.2.8,1.7,1,4-2.7,1.3-3.3,2.3-7,3Z"/>
      <path class="st1" d="M2433.6,53c2.5,1.3.7-.4,2,2-6.5,4.8-12.8,11.9-20,16-16.8,9.6-37.3,16.2-56,23-13.3,4.8-24.6,4-39,8-6.6,1.8-37.3,9.6-45,5,11.8-3.5,22.7-13.4,34-18,20.8-8.4,42.7-16.9,64-24,14.9-5,31.2-6.1,46-10,5-1.3,10.3.4,14-2Z"/>
      <path class="st1" d="M2175.6,186c2.5,1.3.7-.4,2,2-4.2,5-5,19.7-1,25,2.8,6.8,10,9.8,13,16h-1c-8,7.4-35.6,9.3-49,9-1-2.7-1.3-1.7-2-5,4.2-2.4,5-8.3,8-12,5.3-6.5,28.6-28.6,30-35Z"/>
      <path class="st1" d="M2086.6,327c3.4,5.3,2.4,13.9,5,20,4.4,10.4,13.2,17,20,25h-1c-7.8,11.6-33.2,10.9-40-1,2.5-3.3,1.3-6.3,3-11,3.7-10.5,10.3-21.4,13-33Z"/>
      <path class="st1" d="M2050.6,499h3c4.6,14.4,31,31.6,32,44-7.3,2.2-18.8,13.4-28,7-3.1-1-2.9-1-4-4-4.6-7.1-3.1-35.1-3-47Z"/>
      <path class="st1" d="M2086.6,676c5.4,2.1,7.2,8.2,11,12,7.3,7.3,17.6,17.4,26,23v1h-2c-2.5,1.7-9.7.7-12-1-11.3-3.7-19.9-23.3-23-35Z"/>
      <path class="st1" d="M3467.6,51c-3.1,19.4-21.8,29.1-36,38-36,22.5-79.7,35.1-124,50-14.6,4.9-31.6,5.5-47,9-9,2.1-22.4-1-25-6,6.6-7.7,11.3-17.6,20-23,56-35.1,124.5-66,212-68Z"/>
      <path class="st1" d="M3175.6,186h2c-19.1,48.4,50.8,64.9,87,73v2c-12.9,2.9-24.9,10-37,14-16.5,5.4-34.8,7-52,11-20.1,4.7-42.4-5.2-46-18-2.2-7.8,2.7-14.3,4-19v-8c4.4-13,17-25.4,25-36,4.2-5.6,15.3-11.5,17-19Z"/>
      <path class="st1" d="M3086.6,327c2.7,4.3,1.2,11.9,3,17,2.5,7,6.6,14.5,11,20,21.9,27.5,66.3,41.7,102,56v2c-6,2-11.6,6.8-17,9-19,7.8-69,25.2-94,12-8.2-4.3-13.9-14.2-18-23-3.2-7-10.2-27.6-6-41,5.4-17.1,15-34.4,19-52Z"/>
      <path class="st1" d="M3050.6,495h3c18.2,32.2,38.2,49.6,69,69,3.6,2.2,7.1,1.6,11,4,5.4,3.3,12.2,9.3,18,12,6.3,3,10.8,3.1,17,6,2.4,1.1,5.7,5,8,6,7.4,3.3,18,1.4,19,11-13.5,8.8-26.8,18.2-44,24-7,.7-14,1.3-21,2-48.5,10.7-70.1-44.7-78-80-3.5-15.8-2-36.4-2-54Z"/>
      <path class="st1" d="M3247.6,782c-19.4,2.6-39.9,7.6-61,2-6.3-1.7-10.8.3-16-2-24.4-10.9-41.4-28.5-55-50-2.9-4.6-3.7-9.6-7-14-8.4-11.2-18.1-27.3-22-42h2c6.4,10.5,16.6,18.3,26,26,3.2,2.6,5.5,7.7,9,10,21.3,13.7,41.5,30.7,65,42,12.6,6.1,26.5,13.6,39,18,5.8,2,18.4,4.6,20,10Z"/>
      <path class="st1" d="M3230.6,856c8.4,2.1,16.6,8.8,24,12,15.4,6.7,32,12.1,47,18,7.2,2.9,18.3,1,22,7h-1c-5.7,6-22.5,6.5-32,3-13.4-4.9-53.3-29.6-60-40Z"/>
      <path class="st1" d="M4484.6,50c-.2,22.1-16,36.2-29,46-12.8,9.6-26.1,21.7-41,29-29.8,14.5-62.3,24.2-96,35-21.6,6.9-79.5,12.1-82-13-3.4-6.2,4-12.7,7-16,11.1-12,24.5-18.1,39-27,53.8-32.8,119.3-49.9,202-54Z"/>
      <path class="st1" d="M4175.6,186c.8,1.1.6.9,1,3h-1v-3Z"/>
      <path class="st1" d="M4174.6,189c1.9,3.4-3.2,19.1,1,28,8.9,18.8,47.2,31.9,69,39,20.5,6.7,44,8.2,65,13,8.3,1.9,21.1-1.9,25,4h-2c-6.3,7.2-19.4,10.2-29,14-14,5.6-30.8,13.1-46,18-17.8,5.7-36.1,5.6-55,10-6,1.4-16.5,0-21-1h-11c-26.7-6.9-31.7-10.4-39-37-1.1-4-3.3-11.7-2-17,6.4-26.6,12.9-34,28-51,3.2-3.7,4.6-8.5,8-12,2.8-2.9,6.5-4.8,9-8Z"/>
      <path class="st1" d="M4086.6,328c2.9,4.7.9,12.7,3,18,3.3,8.4,8.7,16.3,14,23,2.6,3.3,7.4,5.6,11,8,4.5,3,9.2,9.4,14,12,9.3,5,16.9,7.8,27,12,2.5,1,5.7,4.8,8,6h5c7.6,2.8,16.4,8,24,11,2.7.3,5.3.7,8,1,29.8,10.4,62,20.5,96,28v1h-1c-7.1,8.8-24.7,13.9-36,19-36.2,16.3-99.5,35.6-143,12-21.5-11.7-38.2-40.9-46-67-2-6.6-6.2-22.7-3-33,5.3-16.8,12.6-34.6,19-51Z"/>
      <path class="st1" d="M4050.6,491c2.9,1.1,1.8.2,3,3,4.4,5,4.7,12.9,8,19,1.6,3,9.3,11.4,12,15,5,6.6,13.1,11.1,20,16,22.8,16.3,45.5,30.6,74,42,2.8,1.1,5.5,4.9,8,6h6c25,10.2,53.3,22.1,81,30,11.8,3.4,39.2,5.9,47,12h-2c-3.7,7.4-21.7,14.1-30,18-2.5,1.2-5.4,4.9-8,6-31.4,12.8-89.2,29.5-129,12-17.4-7.7-31.9-20.8-43-35-1.3-.7-2.7-1.3-4-2-10.3-12.9-18.5-25.2-26-41-1.2-2.4-5-5.4-6-8-9.6-25.6-11-57.7-11-93Z"/>
      <path class="st1" d="M4086.6,676c6.9,2.5,23,24.2,30,30,21.1,17.7,46.3,35.6,72,48,32.5,15.7,67.3,28.3,103,41,3.3.3,6.7.7,10,1,12.2,3.6,28,8.6,41,12,7.6,2,13.2,1.4,19,4v2c-6.5.4-9.4,3.3-14,5-10.6,3.8-22.5,4.6-33,7h-20c-23.7,0-43.7-1.5-61-6-15.8-4.1-28.7-5.6-42-12l-6-6c-6.6-4-11.9-7.5-18-12-1.8-1.3-2.4-4.6-4-6-30.9-25.9-47.6-50.5-67-88-3.1-6.1-8-12.6-10-20Z"/>
      <path class="st1" d="M4230.6,856c12.1,3,25.1,11.8,36,17,3.3.7,6.7,1.3,10,2,20.7,9.9,46.9,16.7,71,23,17.2,4.5,35.2,4.7,52,9,9.8,2.5,22.5-.9,30,4-2.9,3-5.6,7.6-9,10-12.9,9-41.5,8.2-59,3-37-11-67.2-24.6-96-43-11.8-7.5-27.5-13.5-35-25Z"/>
      <path class="st1" d="M479.6,1050h28c1.7,3.1,2.7,3.1,3,8,3.6,3.4,3.2,12.7,2,18-4.5,19.1-8.1,25-19,37-41,45.1-90.1,61.9-160,78h-16c-30.5,0-57.2-6.1-73-21-5-4.7-14.9-20.7-7-31,6.8-15.4,25.3-24.2,40-32,36-19.1,75.4-36.6,120-48,20-5.1,42-3.4,63-8,5.9-1.3,14.7,1.7,19-1h0Z"/>
      <path class="st1" d="M175.6,1187c.8,1,.4.3,1,2h-1v-2Z"/>
      <path class="st1" d="M174.6,1189c2.2,4.5-4.1,10.5-3,17,1.2,7.2,5.7,16.4,10,21,12.3,13.2,41.4,24.2,61,30,3.3.3,6.7.7,10,1,14.1,4.5,32.8,7.3,48,11h13c42.6,9.7,93.4,9.9,142,10v1h-1c-10.7,11.4-24.3,17.3-38,26-28.4,17.9-63.9,31-100,41-14.2,3.9-28.4,4.5-43,8-10.6,2.5-26.9-.1-35-2h-11c-7.3-1.9-15-3.4-23-6-28.5-9.1-51.9-29.1-65-54-7.4-14.1-11.8-24.3-6-44,.3-3.3.7-6.7,1-10,9.1-20,27.3-33.6,40-50h0Z"/>
      <path class="st1" d="M85.6,1329c2.2,1.6,4.5,23.7,8,29,10.2,15.7,35.8,35.5,54,43,38.9,16.1,81.9,30.2,125,42h10c16.2,4.9,38.2,7.9,56,12h16c16.4,3.7,32,2.2,49,6,18.1,4,41.7-2.5,58,3-.3.3-.7.7-1,1-10.3,13.7-28.3,22.6-44,31-25.6,13.8-54.6,26.5-85,36-6.7,2.1-11.5.3-18,2-14,3.7-45.2,7.8-62,4h-23c-9.7-2.3-20.1-2.7-30-6-48.3-16.2-99.7-58.6-122-101-3.4-6.4-12.8-40-9-52,2.7-8.6,7.7-19.8,11-28,.7-3.3,1.3-6.7,2-10,1.7-4.2,4.4-6,5-12h0Z"/>
      <path class="st1" d="M50.6,1491c1,.3,2,.7,3,1,1.3,12.9,7.9,20.2,14,28,2.9,3.7,3.6,9,7,12,14.7,12.8,31.2,24.4,48,35,6.1,3.8,12.8,4.3,19,8,27.8,16.5,66.2,30.5,99,41h7c4.5,1.3,10.5,4.7,15,6h7c65.6,21.1,146,31.1,230,32v1c-4.8,4.2-8.7,11.5-14,15-39.2,25.8-77.5,46.6-130,60h-12c-34,7.9-78.8,2.4-108-6-32.5-9.3-56.6-20.3-82-36-5.8-3.6-12.2-9.6-18-14-1-.8-1.1-3.2-2-4h-3c-3.9-2.6-6.6-7.7-10-11-1.1-1.1-3.9-.8-5-2-6.7-7-12.3-14-18-22-1.8-2.5-7.9-6.2-10-9-12.7-17.1-24.9-38-32-60-5.9-18.2-5-51.9-5-75h0Z"/>
      <path class="st1" d="M86.6,1676c7,2.6,23,24.1,30,30,21.2,17.7,46.3,35.5,72,48,96.4,46.8,210.6,72.6,354,73v1c-27.3,17-61,25.3-97,34h-12c-9,2.1-21.3,2.8-31,5h-16c-23,4.9-54.2-.4-73-5h-9c-3.8-1.1-8.5-4.7-12-6-8.7-3.2-15.5-3.4-24-7-30.1-12.6-59.4-30.4-86-47-7.6-4.7-14.3-12.7-22-18-1.9-1.3-2.3-4.5-4-6-7.8-6.6-16.9-13.8-23-22-3.4-4.5-5.3-9.9-9-14-12.6-13.9-32.6-46-38-66h0Z"/>
      <path class="st1" d="M564.6,1910v4c-14.3,8.7-25.8,20.3-44,26-26.4,8.2-71.6,6.1-98,0-13.6-3.1-22.5-2.3-35-6-27.6-8.1-54.5-19.5-79-30-9.1-3.9-16.2-8-24-12-2.5-1.3-4.9-.4-7-2-9.6-7.3-20.7-13.6-30-21-2-.7-4-1.3-6-2-3.7-3.2-6.9-7.2-11-10v-1h2c3.8,3.7,7.4,3.7,13,6,6.4,2.6,14.6,7.9,21,11,8.9,4.3,16.7,4.2,26,8,23.9,9.6,53,14.7,80,22,5.3.3,10.7.7,16,1,10.2,2.3,23.6,3.6,34,6,13.3,3.1,27.9-.8,40,2h29c25.8,0,48.6-2,73-2Z"/>
      <path class="st1" d="M1479.6,1050h25c20,5.5,38.8,27,30,57-2.4,8.1-7.7,16.9-12,24-4.8,7.9-14.7,15.2-22,21-29.4,23.5-64.7,37.2-105,50-10.9,3.5-23.4,3.6-34,6-10.3,2.3-25.4-.3-33-2-9.2-2.1-14.9-.6-24-3-23.1-6-42.6-15.3-57-30-5.2-5.3-19.7-21.3-10-34,6.8-15.4,25.3-24.2,40-32,36-19.1,75.4-36.6,120-48,20-5.1,42-3.4,63-8,5.9-1.3,14.7,1.7,19-1Z"/>
      <path class="st1" d="M1175.6,1187c.8,1,.3.3,1,2h-1v-2Z"/>
      <path class="st1" d="M1545.6,1275v3c-4.4,2.9-7.7,7.9-11,12-7.4,9.1-18.1,15.2-28,22-1.3,1.7-2.7,3.3-4,5-39.2,24.3-77.1,40.4-128,54-12.4,3.3-45.1,13.8-62,10-14.2-3.2-29.7-.3-44-4-43.1-11.1-78.1-27.1-105-54s-8.9-6-12-10c-6.1-8-14.6-17.9-18-28-11.6-34.4,8.8-58.9,24-76,6.1-6.9,9.8-15.2,18-20v3c-7.4,9.4-2.5,22.8,3,30,13.8,18.1,31.9,22.7,55,32,26.8,10.8,61,11.7,92,19,12.9,3,24.3-1,38,2,11.5,2.5,28.7,1.6,39,3,41.8,5.5,96.6.4,143-3Z"/>
      <path class="st1" d="M1085.6,1329c2.9,4.6,1,12.5,3,18,4.4,12.2,13.3,25.8,23,33,42.6,31.7,103.2,46.8,161,63,18.4,5.1,38.5,6.2,56,11,7.3.3,14.7.7,22,1,6.6,1.5,16.4,2.5,23,4h13c13.3,2.9,31.6-1.3,47,2,13.8,3,31.6,2,48,2h18c13.3-2.9,29.3,1.2,44-2,12.1-2.7,27.2-4.6,40-5v2c-11.3,10-20.4,24.6-33,33-21,14.1-42.6,29.9-66,41-27,12.8-57.3,21.6-88,30h-10c-31.6,7.8-81.5,8.1-113,0h-8c-14.1-3.7-31.5-7.4-45-13-66.4-27.6-134-74.2-153-149-6.5-25.6,16-51.6,18-71Z"/>
      <path class="st1" d="M1624.6,1647v4c-5.6,2.9-7.8,8.8-12,13-4.6,4.6-10.7,8-16,12-6.9,5.2-13,12.9-20,18-7.3,5.3-14.8,7.6-23,12-4.2,2.2-9.8,7.3-14,10-6.3,4.1-12.7,5-20,8-18.7,7.7-38.5,18.2-60,24-19.6,5.3-40.9,5.3-61,10h-13c-29,6.3-71.1-2.1-92-9-21.3-7-39.7-11.5-60-19-7.3-2.7-16.2-8.7-23-12-32.7-15.9-59-33.2-86-54-3.6-2.8-5.7-7.8-9-11-24.9-24.1-48-50.1-60-87-5.9-18.2-5-51.8-5-75h1v1c5.6,6.2,5.7,17.6,10,25,2,1.7,4,3.3,6,5v3c3.1,4.9,9.6,9.2,14,13,1.8,1.5,2.3,4.4,4,6,2.6,2.4,7.9,3.9,11,6,1.8,1.2,3.1,4.7,5,6,17.2,11.5,37.7,20.2,56,30h5c7.7,3,17,9.3,25,12h6c110.6,46.4,279.2,66.3,431,49Z"/>
      <path class="st1" d="M1086.6,1676c4.4,1.6,2.3,3.2,5,6,2.1,2.3,5.6,4,8,6,3.9,3.3,6.3,8.4,10,12,1.3,1.2,3.6.9,5,2,3.2,2.6,5.5,7.7,9,10,24.9,16.1,49,35,77,48,36.1,16.7,76.4,30.3,117,42h8c13.6,3.5,30.9,7.3,45,11,5.7.3,11.3.7,17,1,16.7,4.2,39.9,4.8,58,9h12c23.2,5.1,53.7,3,81,3h38c12.9-2.9,30.2-3.1,43-6h12c7.5-1.8,16.8-4,25-5v2c-24,13.1-48.8,27.5-75,39h-5c-3.5,1.3-8.4,4.8-12,6h-6c-20.1,6.7-44.6,12.5-67,18-6.3.3-12.7.7-19,1-39.7,9.1-95.6.8-129-10-13.6-4.4-25.4-4.5-39-9-44.2-14.7-86.3-36-122-60-.3-1-.7-2-1-3-6.2-5.7-14.1-10.2-21-15-4-2.8-6.3-8.8-10-12-3.3-2.8-8.6-5.5-11-9v-3c-1.4-1.7-4.7-2.2-6-4-3.3-4.5-5.3-9.9-9-14-12.6-13.9-32.6-46-38-66Z"/>
      <path class="st1" d="M1230.6,1856c8.4,2.1,16.7,8.8,24,12h5c12.7,5.7,28.6,12.6,42,18h6c4.5,1.4,10.4,4.7,15,6h7c27.8,8.8,61.9,10.7,93,18,13.3.3,26.7.7,40,1,12.5,2.8,55.5,2.8,68,0h19c5.3-1.2,14.5.5,21-1,10.9-2.5,24.4-3.5,35-6h10c9.7-2.3,18.5-5.8,30-6v1c-14.8,14.1-32.3,28-54,35-14.3,4.6-30.6,6.3-45,10-12.5,3.2-25.9-1-40,2-11,2.3-25.6,0-37,0h-23c-8-1.9-18.2-4.1-26-6h-9c-44.2-13.6-86.9-25.3-123-46-16.9-9.7-48.1-22.8-58-38Z"/>
      <path class="st1" d="M2479.6,1050c48.4-.8,89.8,14.3,104,48,1,2.4,4.2,6.4,5,9,4.3,14.1-3,28.8-6,36-.3,2-.7,4-1,6-29.1,39-73.8,56.6-129,70-16.8,4.1-45.6,3.7-62,0-13.3-3-25.1-.5-38-4-20.8-5.6-49.1-9.6-68-18-6.2-2.8-13.4-8.8-19-12-13-7.4-29.9-15-30-35,0-4.9,0-8.4,2-11,6.8-15.4,25.3-24.2,40-32,36-19.1,75.4-36.6,120-48,20-5.1,42-3.4,63-8,5.9-1.3,14.7,1.7,19-1Z"/>
      <path class="st1" d="M2175.6,1187c.8,1,.4.3,1,2h-1v-2Z"/>
      <path class="st1" d="M2174.6,1189c2.4,4.9-6.2,13.8-3,24,2.1,6.6,8.8,16.1,14,20,46.6,35.3,156.8,47,236,47,29.7,0,63.2,2.7,89-3,10.2-2.3,21.2,0,30-2h24c28.9-6.6,64.7-5.2,91-15v3c-2.2,3.3-2.2,8.6-4,12-5.1,9.9-11.5,19.2-18,28-8,10.8-25.2,24.6-37,32-2.7,1.7-5.4,5.9-8,8-6.6,5.3-14.8,7.2-22,12-11.6,7.7-26.5,16.6-40,22-24.2,9.7-50.7,15.3-77,23-9.7,2.8-22.1,2-31,4-23,5.1-61.9.6-81-4-19.6-4.7-37.3-5.6-56-11-42-12.2-92.4-35-118-64-1.1-1.3-3.8-.8-5-2-9.3-9.4-32.1-43.6-27-66,8.4-36.9,24.2-43.8,43-68Z"/>
      <path class="st1" d="M2085.6,1330c2.7,4.3,0,11.7,2,17,4.5,11.8,15.4,29.6,25,36,43.8,29.3,100.1,44,158,60,18.2,5.1,37.7,6.3,55,11,6,.3,12,.7,18,1,14.5,3.2,31,2.7,46,6h31c20.9,4.4,77.3,4.5,98,0h27c31.1-7,65.2-4.7,96-12,16.4-3.9,36.4-7.8,52-12,4.3-.3,8.7-.7,13-1,9.3-2.8,20.5-6.7,31-9v4c-5.1,4.1-7.5,12.2-11,18-.8,1.3-6.8,9.7-8,11-1,.3-2,.7-3,1-8.6,9.7-14.9,20.9-24,30-42.7,42.8-100.7,74.2-165,95-42.1,13.6-121.2,17.9-169,6h-12c-22.9-5.8-45.4-10.2-67-18-27-9.7-54-23.4-78-36-8.6-4.5-17.1-6.6-25-12-9.1-6.2-18.7-12.6-28-19-1.3-1.7-2.7-3.3-4-5-36.5-22.8-63.4-56.1-76-103-6.1-22.9,15.1-51.7,18-69Z"/>
      <path class="st1" d="M2050.6,1493c5.1,4.2,7.5,19.4,11,26,1.7,1.3,3.3,2.7,5,4,14.7,21.4,37.8,39.5,62,51,34.1,16.2,72.3,30.9,110,42,23.1,6.8,46.6,10.3,69,17,6,.7,12,1.3,18,2,18.3,4.7,41.1,6.6,60,11h16c25.6,6,55.3,6,86,6,8.8,0,22.5.9,28,0,6-1,13.7,1.5,18,1,30.3-3.2,62-.9,89-7h14c31.9-8,65.2-9.6,96-19,9.4-2.9,21.2-8.1,30-11,4.7-1.6,8,0,12-2,6.8-3.2,16-8.6,24-10v2c-5.4,5.2-7.9,12.4-12,19-1.7,1.3-3.3,2.7-5,4-4.6,6.6-8.2,12.7-13,19-1.4,1.8-4.6,2.3-6,4-3.2,3.8-4.6,8.4-8,12-38.7,40.6-99.1,77.9-160,96-26.9,8-56.1,9.3-85,16-7,.3-14,.7-21,1-8.1,1.7-20.3,1-30,1-25.5,0-49.6,0-70-5-6-.3-12-.7-18-1-31.7-8.1-63.4-13.6-93-24-27.1-9.5-54.1-23.3-78-36-5.9-3.1-12.7-4-18-8-9.6-7.3-20.2-15.2-30-22-1.7-.3-3.3-.7-5-1-1-1.7-2-3.3-3-5-29.5-19.7-68.5-59.3-82-94-9.4-24.2-11-55.2-11-89Z"/>
      <path class="st1" d="M2086.6,1676c5.4,2,7.3,8.3,11,12,9.5,9.6,20.5,19.6,31,28,32.1,25.6,73,44.8,113,62h5c3.3,1.4,8.6,4.8,12,6h6c30.9,12.2,67.9,18.6,103,28,12.9,3.5,27.4,3.1,39,6,15.5,3.9,33.4,1.6,48,5h17c10.9,2.5,26-.7,39,2,15,3.1,56.4,1.4,71-2h12c22.3-5.3,47.1-3.2,69-9,35.4-9.3,69.6-18.1,102-30,14.4-5.3,28.1-16.2,43-21v1l-18,18c-13.3,10.1-25.4,22.5-39,32-44.3,31.1-98.1,50.5-158,66-13.9,3.6-27.4,2.9-41,6h-19c-13.7,3-45,4.2-59,1h-23c-5.9-1.3-15.9.7-23-1-8.3-1.9-20.2-3-28-5-8-.7-16-1.3-24-2-23-6.7-47-10.3-70-17-9.3-2.7-20.2-8.8-29-12-7.3-2.6-11.7-2.7-18-6-2.6-1.4-6-4.8-9-6-18.1-7.2-33.1-14.6-49-24-14.1-8.4-26.4-20.6-40-30-1.9-1.3-2.3-4.5-4-6-7.8-6.6-16.9-13.8-23-22-3.3-4.5-5.3-9.9-9-14-12.6-13.9-32.6-46-38-66Z"/>
      <path class="st1" d="M2765.6,1853c2.1.4,1.9.2,3,1-8.5,7.9-14.8,18.8-24,26-1.8,1.4-4.2.8-6,2-12.6,8.7-25.7,15.5-41,22-12.1,5.1-26.1,13.4-39,18-20.3,7.2-42.1,12.6-63,18-12.4,3.2-23.7,3.3-35,6h-15c-22.7,5-59.4,5.2-82,0h-17c-8-1.9-18.2-4.1-26-6h-9c-37.7-11.7-76-20.3-109-37-19.1-9.7-38.9-21.1-55-34-2-.7-4-1.3-6-2-3.7-3.2-6.9-7.2-11-10v-1h2c6.9,6.7,17.5,7.8,27,12,12.7,5.7,28.6,12.6,42,18h6c108.8,33,268.4,36.1,377,0h6c8.2-2.7,18.4-7.8,26-11,3.3-.7,6.7-1.3,10-2,6-3,14-8.4,20-11,6.7-2.8,14.8-3.8,19-9Z"/>
      <path class="st1" d="M3479.6,1050c54.4-.9,119.5,14.3,139,46,3.1,5.1,5.7,11.5,8,17,8.1,19.6-.4,37.6-8,50-15.5,25.2-46.9,42.9-78,52-52.7,15.3-153.3,9.7-203-5-4-.3-8-.7-12-1-14.6-3.9-31.6-8.6-44-15-17.6-9.2-33.2-16.1-43-33-2.6-4.4-5.3-16.5-1-22,6.8-15.4,25.3-24.2,40-32,36-19.1,75.4-36.6,120-48,20-5.1,42-3.4,63-8,5.9-1.3,14.7,1.7,19-1Z"/>
      <path class="st1" d="M3715.6,1245c-3.2,50.3-38.7,87.5-72,108-7.6,4.7-15.2,12.3-23,17-29,17.3-65.2,28-102,37h-11c-30,6.7-79.3,6.7-110,0h-18c-13.5-3.1-29.4-2.9-44-7-22.4-6.2-45.9-9.6-68-17-34.6-11.6-67.2-28.3-94-48-14.3-10.5-32.8-33.7-39-52-11.8-35,11-60.6,24-78,1.7-1,3.3-2,5-3,5.5-6.7,10-14.9,18-19v2c-13,8.9-7.5,33.8,0,44,5.7,7.8,18.5,12,28,16,6.5,2.8,15.1,8.4,22,11,16.5,6.2,33.1,7.5,51,12,32.4,8.2,71.5,5.5,107,12,5.1.9,19.6-.6,25,0,14.1,1.5,35.9,2.3,50,0,14.7-2.4,36.7.5,52-3h14c9.6-2.2,22.6.6,34-2,11.2-2.6,25.1-3.5,36-6h12c16.8-4,37.8-7.7,54-12,4-.3,8-.7,12-1,10.5-3.5,24.6-10.7,37-11Z"/>
      <path class="st1" d="M3085.6,1331c2.1,3.6,0,10.5,2,17,3.5,10.9,14.6,29,23,35,59.6,42.3,138.2,52.2,221,72,6.7.3,13.3.7,20,1,7.7,1.8,19.9,3.1,28,5,8.4,2,19.9-.6,27,1h29c17.4,3.7,68.6,2.7,85-1h25c8.1-1.8,20.6-2.1,28-4,10.8-2.8,21.6,1.1,33-2,33.7-9.2,72.7-10.8,104-22,5.1-1.8,9.3-.2,15-2,16-5.2,34.9-11.7,50-18h5c10-4.2,19.6-10.9,31-14v3c-3.7,6-4.3,16.9-7,24-6.1,15.8-20.9,39-31,52-1.7,1-3.3,2-5,3-29.5,43.5-101,86.6-156,105-22.4,7.5-46.4,10.9-70,17-10.7.7-21.3,1.3-32,2-34,7.2-97.4.2-126-7-5.3-.3-10.7-.7-16-1-10.9-3.2-25.4-6.6-36-10-3.7-.3-7.3-.7-11-1-9.8-3.2-22.5-8.8-32-12-3-.3-6-.7-9-1-31.5-13-62.3-26.3-92-41-8.9-4.4-17.5-13-26-18-1.7-.3-3.3-.7-5-1-3.8-3.2-7.8-8.4-12-11-29.8-18.4-57-46-71-80-16.3-39.6,2.3-59.2,11-91Z"/>
      <path class="st1" d="M3050.6,1494c4.8,3.6,7.7,19.8,11,26,1.3,1,2.7,2,4,3,10.3,14.6,23.1,28.3,38,38,1.7.3,3.3.7,5,1,2.3,1.2,4.7,4.7,7,6,11.3,6.3,24.5,13.1,36,18h5c38.4,16.5,83,30.8,127,42h10c15,4.1,35.1,8,51,12h11c22.4,5.1,51.2,4.7,75,10,11,.3,22,.7,33,1,20.8,4.4,49.3,1,72,1s56.1,0,82-6h13c10.3-2.4,22.9-3.7,33-6h9c45.1-12.4,90.4-19.6,130-37,13.8-6,28.2-15.2,41-22,2.6-1.4,4.7-.5,7-2,7.2-4.7,15.7-14.2,25-16v1c-5.8,6.2-7,15.8-11,24-8,16.2-19.8,31.9-30,46-1.4,1.9-.5,4.3-2,6-36.8,41.1-74.1,78.8-129,102-7.2,3.1-16.3,9.3-24,12-28.1,10-57.5,14.5-89,22-13.8,3.3-29.4-.2-44,3-14.7,3.2-55.7,5.4-71,2h-19c-10-.6-23.9-1-33-3h-19c-28.9-6.8-58.1-9.9-86-18-62.6-18.2-137.3-48.9-179-88-4.4-4.1-10.2-6.4-15-10-4.3-4.7-8.7-9.3-13-14-18.8-15.2-39.9-42.6-50-66-10.1-23.3-11-55.1-11-88Z"/>
      <path class="st1" d="M3086.6,1676c7.3,2.7,17.2,18.3,23,24,19.3,18.8,45.7,35.3,71,48,2.2,1.1,4.8,5,7,6h5c2.3,1.1,5.7,4.9,8,6,13.3,6.5,27.9,12.4,41,18h5c3.3,1.4,8.6,4.8,12,6h6c24.9,9.8,55,16.7,83,24,22.6,5.9,46.8,5.8,69,11,11.3.7,22.7,1.3,34,2,23.5,5.1,79.8,6.8,103,3,14.5-2.4,28.9-.2,41-3,8.7-.3,17.3-.7,26-1,22.1-5.1,45.8-5.9,68-12,49.6-13.8,94.6-31.3,135-54l6-6c7.5-4.4,13.7-7.5,21-12,8.9-5.6,15.3-17.3,26-21v2c-4.1,2.8-4.2,5.9-7,10-2.7,3.9-8.4,7.1-11,11-4.9,7.3-9.9,14.8-16,21-36.3,37.1-77,70.6-130,91-34.8,13.4-72.9,20.9-112,30h-12c-10.1,2.3-24.4,3.5-35,6-6.5,1.5-15.8-.2-21,1h-25c-13.9,2.9-43.5,2-57-1h-23c-26.4-6.1-55.7-5.4-81-13-84.2-25.4-157.3-53.7-207-113-1.4-1.7-4.6-2.2-6-4-3.3-4.5-5.3-9.9-9-14-1-.3-2-.7-3-1-9.7-14.5-16.6-28.8-25-45-3.1-6.1-8-12.6-10-20Z"/>
      <path class="st1" d="M3792.6,1838h2c-.3.3-.7.7-1,1-4.8,8.9-14.9,15.2-23,21-5.1,3.7-9.9,9.4-15,13-14.3,10.2-29.6,17-46,25-6.4,3.1-14.3,9.2-21,12-29.2,12-60.6,21.6-93,30-19,4.9-38.6,3.5-58,8h-18c-21.7,4.7-71.2-1-89-6-6.4-1.8-12.1.2-19-2-26.3-8.1-54.3-13.4-79-24-24.8-10.6-49.2-22.9-72-36-10.6-6.1-19.9-16.2-30-23v-1h2c6.9,6.7,17.5,7.8,27,12,12.7,5.7,28.6,12.6,42,18h6c4.5,1.4,10.4,4.7,15,6h7c112.6,35.5,291.6,22.9,387-17,12.1-5.1,22.4-7.7,34-13,6.5-3,13.7-9.1,20-12,7.9-3.7,16.2-6.3,22-12Z"/>
      <path class="st1" d="M4479.6,1050c75.1-1.3,141.8,12.6,184,45,17.5,13.5,30.2,52.9,13,77-11.2,15.7-33.6,30.1-53,37-86.5,30.7-232.9,17-316-6-25.9-7.2-52.6-17.3-66-37-3.4-5-10.6-18.4-4-27,6.8-15.4,25.3-24.2,40-32,36-19.1,75.4-36.6,120-48,20-5.1,42-3.4,63-8,5.9-1.3,14.7,1.7,19-1Z"/>
      <path class="st1" d="M4186.6,1177c.4.3,2,.5,1,2-1.1-.5-3.1-1.8-1-2Z"/>
      <path class="st1" d="M4183.6,1179h2c-3.3,6-6.7,12-10,18-7,21.5,13.3,36.7,23,43,19.8,12.8,44.2,21.6,70,29h8c7,1.7,16,4.2,23,6h13c12.6,3,33.9,3.7,45,6h41c12.7,2.8,57.4,3,70,0h35c27.9-6.3,60.5-4.6,87-11,5.7-.3,11.3-.7,17-1,25.8-6.3,53.4-11,77-18,4.7-.7,9.3-1.3,14-2,12.1-4.4,25.7-10.2,37-15,3-.7,6-1.3,9-2,10.3-5.2,21.6-14.9,33-18v2c6.6,9.3,6,45.1,3,58-11.8,51.2-35.6,72-74,96-9.9,6.2-20.6,8.6-32,13-26.8,10.4-54.8,16.7-86,24-7,.3-14,.7-21,1-23.7,5.2-53.1,4-81,4-79.7,0-151.3-8.8-210-29-25.1-8.6-46.9-16.3-67-29-29-18.3-57.1-33.7-70-68-3.1-8.4-9.4-21.4-6-36,5.1-22.3,18.5-38.8,32-53,5.8-6.1,13.5-10.7,18-18Z"/>
      <path class="st1" d="M4084.6,1333l3,18c5.2,14.5,14.7,29.5,26,38,31.3,23.5,72.8,36.3,116,48,12.7,3.4,22.8,2.6,36,6,153.1,39,362.5,21.9,497-24,30.8-10.5,63.6-27.1,89-44,10.4-6.9,19.9-17.2,31-23v9c2.4,3.8.9,15.1,0,19v16c-2.2,9.3-4.8,20.4-8,29-14.4,39.3-34.5,72-65,95-4.2,3.2-7.7,9.1-12,12-7.5,5.1-15.9,8.3-23,14-33.4,26.9-83.8,40.6-132,52-15.1,3.6-29.7,2.9-44,6h-20c-12.4,2.6-27.2-.9-41,2-8.2,1.7-23.8,1.8-32,0-25.7-1-51.3-2-77-3-37.6-9.4-75.6-12.3-111-23-21.3-6.4-44.4-16-64-24h-6c-6.7-2.8-15.3-9-22-12-2.3-.3-4.7-.7-7-1-5.7-2.8-12.4-8.4-18-11-6-2.8-11.5-3.5-17-7-4.7-3-10-8.3-15-11-35.6-19.2-70.5-47-89-83-4.3-8.4-16.4-37.7-12-52,4.6-15,12.9-30.9,17-46Z"/>
      <path class="st1" d="M4051.6,1496h2c6.5,55.5,67.3,82.4,112,101,9.8,4.1,18.9,3.9,29,8,32.4,13,71.9,16.8,107,28,7.3.7,14.7,1.3,22,2,19.6,4.9,45.5,6.2,66,11,14.3.7,28.7,1.3,43,2,12.4,2.8,49.5,5.8,62,3,6.8-1.5,15.7.8,20,0,17.1-3.4,35.6,1.4,51-2,9.4-2.1,20.3.1,27-1,18.3-3,39.5-4.1,56-8h13c47.4-12,92.9-19.8,135-36,7.4-2.8,16.1-8.8,23-12,17.7-8.3,33.6-14.6,49-25,10.1-6.8,18.8-16.1,29-23,7.7-5.2,15.2-14.8,21-22,2-1.3,4-2.7,6-4,2.9-4.3,4.9-10,10-12v2c-3.8,6.2-1.9,13.9-4,22-1.4,5.4-4.5,12-6,17v7c-7.9,24.6-18.5,48.4-30,70-4.5,8.4-13,16.2-18,24-35.5,55.8-100.4,89.4-169,112-26.8,8.8-56.5,11.2-85,18-12.1,2.9-22.4-.6-34,2-19.5,4.3-62.2,6.6-84,3-13.3-2.2-33.2.1-47-3-12.1-2.8-22,1-34-2-21.7-5.5-45.7-6.1-68-12-68.1-18.1-128.8-40.7-183-72-1.7-1-2.5-4-4-5-1.7-.3-3.3-.7-5-1l-6-6c-8-4.7-14.8-8.6-22-14-1-.8-1.1-3.2-2-4-3.4-2.8-7.5-3.3-11-6-1.7-1.3-2.2-4.6-4-6-20.5-15.8-38.5-36.3-51-60-1.1-2-5-4.8-6-7v-5c-2.5-7-5.8-17-8-25-.3-5.7-.7-11.3-1-17-2.3-10.4-4.6-31.2-1-42Z"/>
      <path class="st1" d="M4086.6,1676c4.4,1.6,2.3,3.2,5,6,2.1,2.3,5.6,4,8,6,3.9,3.3,6.3,8.4,10,12,1.3,1.2,3.6.9,5,2,3.2,2.6,5.5,7.7,9,10,32,20.7,63.8,45.6,102,60,30.3,11.4,62.4,20.1,94,30,4.3.3,8.7.7,13,1,12,3.2,27.5,5.8,40,9,21.3,5.4,44,3.2,65,8h20c13.8,3,32.2.7,45,2,16.6,1.7,40.5,2.5,56-1h21c17.8-4.1,38.6-2.8,55-7,9.1-2.3,16.5.4,25-2,18.2-5.2,40.3-8.9,57-15,4.7-.7,9.3-1.3,14-2,39.5-14.5,74.1-30.4,106-52,13.4-9.1,28.4-17.2,40-28,2.6-2.4,4.3-6.8,7-9,3.5-2.9,8.2-4.6,11-8v-3c3.9-4.4,9.1-6.4,12-12h1v2c-6,7.7-7.7,18.4-13,27-7.3,11.8-15.7,24.6-24,36-6.7,9.2-16.9,18.1-26,25-11.2,8.5-22.1,20.5-34,29-25.1,18.1-61.3,34-91,47-3.7.7-7.3,1.3-11,2-2.3,1.1-6.6,4.2-9,5-3,.3-6,.7-9,1-2.4,1-6.1,4.2-9,5h-7c-21.4,6.8-47.6,12.4-71,18h-11c-5.5,1.2-13,2.8-18,4-13.3,1-26.7,2-40,3h-18c-16.7,3.6-53.2,2.5-69-1h-20c-10.9-2.5-24.5-3.6-35-6h-11c-24.5-6.2-49.9-10.8-74-18-57.3-17.2-105.8-47.3-148-80-5.5-4.2-9.1-11.1-14-16-7.9-7.9-17.7-15.7-24-25-5.3-7.9-9.5-15.7-15-23-4.9-6.5-6.2-14.6-10-22-3.1-6.1-8-12.6-10-20Z"/>
      <path class="st1" d="M4792.6,1838h2c-.3.3-.7.7-1,1-4.8,8.9-15,15.2-23,21-5.1,3.7-10,9.4-15,13-14.3,10.2-29.6,17-46,25-6.4,3.1-14.3,9.2-21,12-29.2,12-60.6,21.6-93,30-19,4.9-38.6,3.5-58,8h-18c-21.7,4.7-71.2-1-89-6-6.4-1.8-12.1.2-19-2-26.3-8.1-54.3-13.4-79-24-24.8-10.6-49.2-22.9-72-36-10.6-6.1-19.9-16.2-30-23v-1h2c6.9,6.7,17.5,7.8,27,12,12.7,5.7,28.6,12.6,42,18h6c4.5,1.4,10.5,4.7,15,6h7c112.6,35.5,291.6,22.9,387-17,12.1-5.1,22.4-7.7,34-13,6.5-3,13.7-9.1,20-12,7.9-3.7,16.2-6.3,22-12Z"/>
      <path class="st1" d="M479.6,2050c34.3-.6,65.6,2.5,93,9,14,3.4,24.7,2.2,38,6,27.8,7.8,57.2,16.6,79,31,15.4,10.2,35.2,36.5,25,65-4,11.2-15.5,21.9-24,29-13.1,10.9-45.5,20.2-65,25-5.3.3-10.7.7-16,1-6.5,1.6-16.3,3.4-23,5h-16c-55.2,12.2-154.6,7.8-205-5-5-.3-10-.7-15-1-9.5-2.6-22.6-5.8-32-9-6.2-2.1-10.4-.8-17-3-21.1-7.1-42.7-18.7-57-33-4.8-4.8-15-20.6-7-31,6.8-15.4,25.3-24.2,40-32,36-19.1,75.4-36.6,120-48,20-5.1,42-3.4,63-8,5.9-1.3,14.7,1.7,19-1h0Z"/>
      <path class="st1" d="M188.6,2174c1.6,4.7-9.1,16.5-11,23-5.4,18.8,7.7,35.6,16,42,24.7,19,60.4,27.1,95,36h10c9.1,2.3,21.2,3.7,31,6,16.3.7,32.7,1.3,49,2,14.8,2.7,50.1-1.6,71,0,29.2,2.2,80.2-1.1,109-8h13c9.3-2.2,20.7-3.8,30-6h9c24.3-5.9,51.7-11.3,74-18,40.2-12,91.7-26.9,110-60,.3.3.7.7,1,1,8.1,6.6,11.5,20.8,15,32,1.4,4.5,4.7,10.3,6,15v10c11.5,49.2-22.8,89.9-50,108-58.5,38.9-168.8,55-266,55-35.7,0-72.7,1.7-103-5h-19c-20.8-5.2-44.1-6.6-65-13-28.3-8.6-55.9-17.9-82-29-2.6-1.1-5.5-4.8-8-6-32.1-15.2-61.9-33.9-78-65-4.8-9.2-14.2-23.5-12-39,4.6-32.1,24.9-49.2,42-69,4-4.7,9.8-6.1,13-12h0Z"/>
      <path class="st1" d="M900.6,2328c1.9,1.7,1.7,1.4,2,5,7,9.8,7.2,53.8,4,68v12c-3.2,13.2-6.9,27.6-12,40-15.9,38.6-47.3,64.8-78,89-5.4,4.2-12,5.5-18,9-25,14.9-55.4,25.5-86,35h-8c-6,1.6-13.7,4.5-20,6h-9c-23.2,6.2-51.8,6.4-77,12-15.5,3.5-36.7-1.3-50,1-13.6,2.4-29.7,1.8-44,0-2.4-.3-5.3,1.8-9,1-11.4-2.4-25.3.9-38-2-9.7-2.2-22.9-3.7-32-6-6.3-.3-12.7-.7-19-1-14.4-3.5-32.2-7.4-46-11h-8c-48.6-13.8-94.3-29.9-138-48-14.4-5.9-28.9-16.7-42-24-37.9-21.1-74.3-46.9-93-87-4.2-9-17.2-31.5-12-48,4.7-15,12.9-30.9,17-46h1c0,31.4,16.1,49.3,35,62,4.2,2.8,8.9,7.9,13,11,2.1,1.6,11,6.1,13,7h5c18.5,10.2,42.7,17.7,65,24,18,5,36.9,6.8,54,11,5.7.3,11.3.7,17,1,23.5,5.4,53.3,6.4,77,12,11,.3,22,.7,33,1,14.9,3.2,29.3,1.6,45,4,4-.3,8-.7,12-1,5.9,1.2,20,.8,25,0,17.6-2.8,34.4.4,50-3h15c18.8-4.2,38.5-3.1,56-7h12c14.6-3.7,33.7-6.3,48-10,6.5-1.7,11.3.1,18-2,31.6-9.9,65-18.9,94-30,7.4-2.8,12.9-2.7,20-6,1.7-.8,4.3-4.2,6-5,34.7-16.1,86.2-40.7,102-74Z"/>
      <path class="st1" d="M949.6,2479h2c6.9,173.4-97.7,227.8-220,275-3.3.3-6.7.7-10,1-20.3,6.6-45.1,11.7-67,17h-11c-31.6,7.1-69.5,10-107,10-19.7,0-40.5,1.2-55-2-14.1-3.1-27.3,1.4-42-2-9.8-2.3-21.9-3.7-32-6h-10c-26.7-6.5-54.6-10.2-81-18-3.1-.9-7.1-3.9-10-5-27.5-10.1-54.1-14.9-77-29-6.8-4.2-16.2-4.8-23-9-4.9-3-11-8.3-16-11-53.3-28.4-110-69-133-127-5.4-13.7-9.4-59.1-6-77h2c3.8,31.8,20.5,51.9,42,66,1.2.8,1,3.1,2,4,1.7,1.5,4.1.6,6,2,4.9,3.5,10.7,9.1,16,12,34.9,18.7,77.7,31.2,120,42h9c6.2,1.6,14.3,4.4,21,6,4.3.3,8.7.7,13,1,29.1,9.2,65.4,8.9,97,16,9.7.3,19.3.7,29,1,40.5,8.7,94.8,4.2,138,3,103.7-2.8,199.3-23.5,276-57,10.1-4.4,20.8-12.8,30-18,35-19.7,82-56.6,97-95Z"/>
      <path class="st1" d="M86.6,2676c7.7,2.8,22.2,24.1,30,30,24.9,18.8,51.3,41.6,82,54,30.2,12.1,61.4,25.1,94,35,22.8,6.9,46.3,8.8,69,15,24.6,6.7,54,4.3,79,10h35c13.4,2.9,58.6,3,72,0h34c12.7-2.9,29.7-3.1,42-6,6.3-.3,12.7-.7,19-1,24.2-6.1,51-10.5,73-17,6.6-2,11-.5,17-3,30.8-12.8,62.7-22.5,90-39,8.1-4.9,15.9-13.3,24-18,1.7-.3,3.3-.7,5-1,2.2-1.6,5.7-7.2,8-9,11.8-9.4,25.6-17.4,35-29,4.7-5.8,11.2-15.7,18-19v3c-6,5.1-8.3,16.6-12,24-1.1,2.3-4.8,4.8-6,7-8,14.9-15.9,28.3-26,41-1.3.7-2.7,1.3-4,2-23.6,33.6-61.3,52.4-99,72-5.2,2.7-11.7,7.7-17,10-27.9,12.3-58,21.3-88,31-15.8,5.1-34,6.2-49,11-6,.3-12,.7-18,1-10.5,2.3-23,3.5-34,6h-22c-16,3.4-53.9,4.8-71,1h-19c-15.2-3.4-32.7-2.7-46-6-6-.3-12-.7-18-1-10.6-2.7-22.5-3.6-34-7-35.6-10.5-70.2-20.7-102-35-10.1-4.6-20.6-12.8-30-18-2-.3-4-.7-6-1-11.2-7.4-22.4-15.4-34-23-4.3-2.8-7.8-8.9-12-12-31.2-22.8-50.5-52.2-69-88-3.1-6.1-8-12.6-10-20h0Z"/>
      <path class="st1" d="M792.6,2838h2c-.3.3-.7.7-1,1-4.8,8.9-15,15.2-23,21-5.1,3.7-10,9.4-15,13-14.3,10.2-29.7,17-46,25-6.4,3.1-14.3,9.2-21,12-29.2,12-60.6,21.6-93,30-19,4.9-38.6,3.5-58,8h-18c-21.7,4.7-71.2-1-89-6-6.4-1.8-12.1.1-19-2-26.3-8.1-54.3-13.4-79-24-24.8-10.6-49.2-22.9-72-36-10.6-6.1-19.9-16.2-30-23v-1h2c6.9,6.7,17.5,7.8,27,12,12.7,5.7,28.6,12.6,42,18h6c4.5,1.4,10.5,4.7,15,6h7c112.6,35.5,291.6,22.9,387-17,12.1-5.1,22.4-7.7,34-13,6.5-3,13.7-9.1,20-12,7.9-3.6,16.2-6.3,22-12Z"/>
      <path class="st1" d="M1479.6,2050c87.4-1.7,172.5,16.7,226,50,14.2,8.8,19.3,13,30,25,1,.3,2,.7,3,1,12.3,21.2-6.6,42.8-19,52-15.5,11.5-33.5,18.6-54,25-11.7,3.7-27.1,8.8-40,12h-10c-8.9,2-20.1,3.9-29,6h-16c-11.2,2.5-26.1,2.4-38,5h-18c-9,1.9-22.3,1-33,1-29.8,0-59.2-.3-84-6h-14c-14.5-3.6-33-5.8-47-10-5.3-1.6-9.2-.3-15-2-28.2-8.1-55.6-18-74-36-5.3-5.2-19.7-21.5-10-34,6.8-15.4,25.3-24.2,40-32,36-19.1,75.4-36.6,120-48,20-5.1,42-3.4,63-8,5.9-1.3,14.7,1.7,19-1Z"/>
      <path class="st1" d="M1192.6,2171c1.5,3.9-9.2,14.8-11,20-4.3,12.6,0,34.3,6,42,.3.3,13.6,11.7,14,12h3c14.1,8.7,30.3,18.7,48,24h6c4.8,1.4,11.1,4.7,16,6h9c34,9.2,72.4,12,116,12,16.2,0,36.7,2.2,51-1h19c8.9-.8,21.4-1.1,30-3h15c18.2-4.2,40-4.1,57-8,8.7-2,15,.3,23-2,18.9-5.3,42.1-7.6,60-14,5.2-1.9,9.2-.4,15-2,23.3-6.6,47.8-14,69-24,17-8,41.2-22.6,53-36,4.2-4.8,7.8-22.2,12-25,4.9,7.9,12.9,13.6,18,21,14.8,21.3,28.6,42.3,35,72,1.2,5.4-1,12.1-2,16-.7,5.3-1.3,10.7-2,16-3.4,10.3-11.1,19-18,26-32.3,32.9-71.9,45.7-123,60-63.8,17.8-136.6,29-219,29-31.2,0-63.1.8-89-5h-13c-17.1-4.1-38.5-7.2-54-12-4.3-.3-8.7-.7-13-1-36-11.9-71.4-22.6-102-39-33-17.7-60.7-35.5-78-69-7.6-14.6-12.5-38-4-56,3.7-7.8,12.4-14.7,18-21,8.4-9.5,15.5-19.6,24-29,3.2-3.5,8-5.1,11-9Z"/>
      <path class="st1" d="M1115.6,2473c-.4-2.1-.2-1.9-1-3-16.8-17.2-31.5-31.9-41-57-2.8-7.3-10.1-20.8-6-34,4.4-14.4,10.6-31.6,17-45h1c0,36.4,19.7,53.8,41,69,32.8,23.4,74.4,33.2,120,45,15.4,4,30.5,3.7,45,7,7.3.3,14.7.7,22,1,26.9,6.1,62.7,2.7,91,9h22c27.4,5.8,92.4,3.1,120-3,10-.3,20-.7,30-1,15.6-4.2,36-5,52-9h7c22.5-7.1,46.7-8.4,70-15,32.7-9.2,65.7-22.6,94-36,39-18.4,97.3-44.1,107-90,.8,1,.4.3,1,2,8.2,7.1,12.9,33.2,17,46,1.7,5.4,4.5,12.7,6,19,2.2,9.6,2.4,42.6,0,52-1.2,4.9-4.5,10.7-6,15-19.6,56-73,88.2-126,111-132.2,56.8-316,60.6-465,18-3.7-.3-7.3-.7-11-1-15-5.4-33.3-11.8-48-17-2.7-.3-5.3-.7-8-1-34.7-16.4-71.3-27.7-103-47-11.1-6.8-22-15.6-33-23-5.1-3.5-7.9-10.4-15-12Z"/>
      <path class="st1" d="M1949.6,2479c2.5,1.3.7-.4,2,2,3.5,5.5.3,14.4,2,22,3.1,14.2,0,35.6-3,48-.7,6.7-1.3,13.3-2,20-3.2,11.7-7.1,26.7-12,38-16.7,38.1-48.8,64.4-83,85-12,7.2-24.2,17.4-37,24-33,17.2-75.5,31.7-114,42-30,8-63,8.4-94,16h-10c-21.7,4.9-48.1,3-72,3s-12.7-1.4-17-1c-23.5,2.5-55.9-1.1-77-6h-12c-9-2.1-20.4-3.8-29-6-4.3-.3-8.7-.7-13-1-22.7-6.2-47.8-9.2-70-17-46.2-16.1-92-33-132-56-4.2-2.4-8.8-7.6-13-10-36.5-20.9-76.3-52.7-96-90-1.1-2-5-4.8-6-7-4-9.1-3.3-16.7-6-27-3.3-12.6-9-48.2-3-62h1c2.3,30.2,17.8,52.3,37,66,2.1,1.5,5.7,7.2,8,9,8.7,6.8,20.4,14,30,19,32.7,17.1,72,26.6,111,37,5,.3,10,.7,15,1,7,1.7,16.1,4.4,23,6,6.3.3,12.7.7,19,1,6.1,1.5,15.1,3.6,21,5h18c17.4,3.8,41.4,6.2,62,6,9.4-.1,29.6,2,39,4h37c18.8.6,41.9,1.6,61-1,21.4-2.9,46.3-.3,67-5h13c26.6-6.3,57.3-8,82-15,5.7-.7,11.3-1.3,17-2,48.2-16.2,94.6-26.7,134-51,5.6-3.4,11.7-4.2,17-8,28.6-20.4,71.7-54.8,85-89Z"/>
      <path class="st1" d="M1919.6,2667c2,4.1-3,11.6-5,15-4,6.9-4.9,14.1-9,21-3,5.1-8.2,10.9-11,16-32.8,59.8-85.7,91.6-151,119-18.4,7.7-39.8,16.6-59,24h-7c-11.1,3.2-24.8,7.7-36,11-24.7,7.4-53.6,7.3-79,13h-22c-14.6,3.1-32.9,2-50,2-45.6,0-89-4.1-125-14h-8c-5.6-1.4-12.7-4.5-18-6h-7c-39.4-12.6-79.2-26.6-111-47-5.2-3.4-10.7-3.6-16-7-4.2-2.8-8.7-8.2-13-11-7.6-5.1-14.9-8.5-22-14-1-1.7-2-3.3-3-5-32.4-21.2-52.6-52.5-71-88-3.1-6.1-8-12.6-10-20h2c4.1,6.8,10.5,10.1,15,16,19.5,25.7,46.6,39.9,75,57,125.5,75.4,385.5,95.8,550,41,3.3-.3,6.7-.7,10-1,33.3-14.4,70-24.4,96-46,4.4-3.7,12.4-5.4,17-9,9-7.1,17.6-14.9,27-22,4-3,6.2-8.8,10-12h3c1.9-1.3,2.3-4.5,4-6,1.2-1.1,3-.7,4-2,.3-1.3.7-2.7,1-4,6.4-6.9,14.4-12.1,19-21Z"/>
      <path class="st1" d="M1792.6,2838h2c-.3.3-.7.7-1,1-4.8,8.9-14.9,15.2-23,21-5.1,3.7-9.9,9.4-15,13-14.3,10.2-29.7,17-46,25-6.4,3.1-14.3,9.2-21,12-29.2,12-60.6,21.6-93,30-19,4.9-38.6,3.5-58,8h-18c-21.7,4.7-71.2-1-89-6-6.4-1.8-12.1.1-19-2-26.3-8.1-54.3-13.4-79-24-24.8-10.6-49.2-22.9-72-36-10.6-6.1-19.8-16.2-30-23v-1h2c6.9,6.7,17.5,7.8,27,12,12.7,5.7,28.6,12.6,42,18h6c4.5,1.4,10.4,4.7,15,6h7c112.6,35.5,291.7,22.9,387-17,12.1-5.1,22.4-7.7,34-13,6.5-3,13.7-9.1,20-12,7.9-3.6,16.2-6.3,22-12Z"/>
      <path class="st1" d="M2479.6,2050c85.9-1.7,178.9,15.9,230,49,14.9,9.6,46.6,22.7,47,45-2.1,2.8-2.1,6.9-4,10-3.8,6.1-11.2,13.8-17,18-29.7,21.6-69.1,32.7-110,43h-10c-9.2,2.1-20.6,3.8-30,6h-15c-11.5,2.6-26.9,2.3-39,5h-17c-14,2.9-49,3.1-63,0h-18c-21.1-4.7-46.4-3.8-66-9-6.7-.7-13.3-1.3-20-2-40.3-10.4-68.4-16.9-97-39-6.2-4.8-23.3-23.6-13-37,6.8-15.4,25.3-24.2,40-32,36-19.1,75.4-36.6,120-48,20-5.1,42-3.4,63-8,5.9-1.3,14.7,1.7,19-1Z"/>
      <path class="st1" d="M2802.6,2165c10.4,4.4,19,16.8,26,25,21,24.5,59,52.1,42,99-10,27.6-52.3,58.1-79,70-143.6,63.9-417,75.8-556,0h-5c-2.1-1-5-4.9-7-6h-5c-4.8-2.4-10.6-8-15-11-24.7-16.5-45.2-29.6-59-57-7.4-14.7-13.8-36.4-5-55,4.5-9.4,17.4-20.1,24-28,8-9.7,20.6-27.7,32-33v2c-12.8,10-20.8,46.1-7,62,18.4,21.1,49.1,32.6,79,42,21.2,6.7,45.1,7.1,67,12,9.9,2.2,20.4,0,29,2h24c13.7,1.7,53.3,2.7,74-2,12-2.7,25.8.3,36-2l66-6c15.4-3.9,34.5-6.3,49-10h9c27.4-7.6,57.6-15.1,83-24,28.2-9.9,53.4-20.5,75-37,.7-1.3,1.3-2.7,2-4,11.7-9.1,21.1-18,21-39Z"/>
      <path class="st1" d="M2906.6,2305c8.3,6.1,13.9,26.8,18,38,3.3,9.1,9.2,21,12,31,23.1,83-42.5,129.4-88,158-33.6,21.1-75.7,36.1-118,48-19.4,5.4-39.5,7.1-58,12h-12c-10.1,2.3-22.5,3.7-33,6-10.5,2.3-22.7-.4-30,1-23.2,4.4-71.6,4.6-92,0-10-.3-20-.7-30-1-20.1-4.5-44.1-4.7-63-10-7-.7-14-1.3-21-2-24.1-7.5-50.2-10.6-75-18-16.5-4.9-35.3-12.5-51-18-26.2-9.1-50.1-17.4-72-30h-5c-2.1-1-10.7-5.3-13-7-11.1-8.1-23-14.6-35-22-4.6-2.9-8.6-8.8-13-12-18.2-13.3-30.9-27.5-44-46-6.4-9-22.3-33.9-16-54,4.5-14.4,10.6-31.6,17-45h1c-.5,73.9,88.3,99.8,149,115h9c7.7,1.9,17.2,4.1,25,6h13c29.8,6.7,66.8,4.1,95,10h25c20.1,4.4,46.1,2,69,2s42.4,2.1,60-2c10.3-.7,20.7-1.3,31-2,16.2-3.8,35.9-4.4,51-8h10c22.1-5.4,48.9-8,69-16,5.4-2.2,10.1.2,16-2,17.6-6.6,36.5-11.7,55-18,12.4-4.2,25.6-12.6,37-18,27.4-13.1,50.2-26.1,74-42,4.3-2.9,7-8.8,11-12,10.9-8.8,22-22.8,22-42Z"/>
      <path class="st1" d="M2949.6,2479c2.5,1.3.7-.4,2,2,3.5,5.5.4,14.4,2,22,3,14.2,0,35.6-3,48-.7,6.7-1.3,13.3-2,20-3.4,12.1-6.9,26.2-12,38-16.6,38.1-49,65.3-84,85-12.7,7.1-25.2,17.7-39,24-43.8,20.1-89.1,33.2-140,47-5,.3-10,.7-15,1-8.7,2-20.1,3.9-29,6-7.8,1.9-17.4.1-22,1-8.7,1.6-20.9,1.9-30,4-9.2,2.1-21.5-1.1-28,0-14.6,2.3-37,2.2-51-1h-19c-5.2-1.2-13.7-1.8-19-3-8.7-.3-17.3-.7-26-1-19.2-4.5-42.9-7-61-12-4.7-.3-9.3-.7-14-1-54.3-15.6-106.7-30.2-154-53-13.3-6.4-27.4-16.8-40-24-37.1-21.3-78-52.1-98-90-1.1-2.1-5-4.8-6-7-4-9.1-3.1-16.8-6-27-3.4-12.3-8.9-48.5-3-62h1c2,32.4,20.3,57.8,41,72,3.9,2.7,7,8.3,11,11,2,.7,4,1.3,6,2,11.3,7.1,24.1,16.3,37,22,33,14.6,71.1,21.2,109,31h10c9.2,2.2,21.4,3.7,31,6h11c31.7,7.3,68.8,4.7,100,8,9.8,1,24.2.7,34,3,5.3-.3,10.7-.7,16-1,10.1,2.1,29.9,2.4,40,0h25c15,0,32.5-.9,46-4h21c21.6-5.1,48.5-5.5,69-11,5-.3,10-.7,15-1,22.4-6,47.9-11.6,69-18h6c4.1-1.4,9.9-4.8,14-6,3-.3,6-.7,9-1,16.8-7.9,36.4-15.7,53-23,3-1.3,5.2-.4,8-2,4.3-2.4,9.8-7.8,14-10,36.2-19.1,85.9-56.3,101-95Z"/>
      <path class="st1" d="M2920.6,2665c2.5,1.5,1.1-.2,2,3-5.4,5.9-6.7,16-10,24-1.1,2.6-4.8,5.5-6,8-6.1,12.8-10.7,23.4-18,35-1,.3-2,.7-3,1-4.8,5.4-7.1,12.7-12,18-19.4,20.7-49.3,46.2-75,60-13.7,7.4-27.4,11.1-42,18-22.1,10.5-47.3,21.9-72,30-24.1,7.9-51.5,11.8-76,18h-12c-10.7,2.4-23.1,3.5-34,6h-22c-15.3,3.3-50.6,4.6-67,1-13-.3-26-.7-39-1-24.2-5.6-50.3-5.7-74-12-40.9-10.9-80.1-23.8-114-41-3.5-1.8-6.9-1.1-10-3-8.2-4.9-17.1-11.1-25-16-2-.3-4-.7-6-1-8.2-6.7-17-11.8-26-18-3.9-2.7-7.1-8.4-11-11-32.6-22.1-53.2-51.7-72-88-3.1-6.1-8-12.6-10-20h2c15.1,25.1,46.4,48.9,71,65,3.1,2,7.1,1.8,10,4,.7.5,1,2.5,2,3h4c48.5,30.2,109.1,44.3,173,60,27.6,6.8,58.8,4.6,87,11h16c18.9,4.1,45.1,1,66,1,75.4,0,146.8-11.1,205-30,3.3-.3,6.7-.7,10-1,26.7-8.7,56.3-18.7,78-33,2.2-1.4,4.8-.8,7-2,6.9-3.6,14-7.8,21-12,4.9-2.9,9.6-8.6,14-12,8.4-6.6,19.5-11.6,27-19,5.4-5.3,9.7-11.7,15-17,8.3-8.3,22.1-16.9,26-29Z"/>
      <path class="st1" d="M2792.6,2838h2l-1,1c-4.8,8.9-14.9,15.2-23,21-5.1,3.7-9.9,9.4-15,13-14.3,10.2-29.6,17-46,25-6.4,3.1-14.3,9.2-21,12-29.2,12-60.6,21.6-93,30-19,4.9-38.6,3.5-58,8h-18c-21.7,4.7-71.2-1-89-6-6.4-1.8-12.1.1-19-2-26.3-8.1-54.3-13.4-79-24-24.8-10.6-49.2-22.9-72-36-10.6-6.1-19.9-16.2-30-23v-1h2c6.9,6.7,17.5,7.8,27,12,12.7,5.7,28.6,12.6,42,18h6c4.5,1.4,10.4,4.7,15,6h7c112.6,35.5,291.6,22.9,387-17,12.1-5.1,22.4-7.7,34-13,6.5-3,13.7-9.1,20-12,7.9-3.6,16.2-6.3,22-12Z"/>
      <path class="st1" d="M3473.6,2050c98.3-1.9,180.9,14.1,241,51,15.2,9.3,45.8,21.4,46,44-2.3,2.8-1.8,6.8-4,10-2.8,4-14.8,15.4-19,18-59.2,36.9-144.9,54-240,54-50,0-98.4.3-138-11-5-.3-10-.7-15-1-28.8-7.4-59.2-14.7-81-29-10.7-7-24.1-14.7-28-28-7.2-24.4,17.8-36.8,31-45,30.7-19.1,66-33.6,103-47,14.9-5.4,31.9-6.9,47-11,11.6-3.2,26.9-1.5,38-4,5.9-1.4,14.6,1.7,19-1Z"/>
      <path class="st1" d="M3801.6,2163c13.8,7.8,23.5,22.6,34,34,13.9,15.1,48.9,46.8,39,80-2.5,8.5-6.3,18.9-11,26-21.8,32.8-58.9,48.3-96,66-3.8,1.8-6.4.4-11,2-9.1,3.1-20.3,9.3-30,12-4,.3-8,.7-12,1-12.5,3.5-29,7.7-42,11h-8c-19.9,5-45,7.3-66,12-9.3.3-18.7.7-28,1-4.9,1.1-13.7,1.9-19,3h-19c-9.4,2-21.5,1.8-31,1-5,.3-10,.7-15,1-17.4-3.6-38.3-2.3-55-6h-16c-9.2-2.1-20.6-3.8-30-6-4.7-.3-9.3-.7-14-1-22.6-7.2-47.3-9.4-70-17-20.1-6.7-41.3-16.6-60-24-36.6-14.4-79.4-41-96-75-6.3-12.9-15.8-31-8-50,6-14.6,19.7-26.2,30-37,10.3-10.8,18.8-24.2,32-32v3c-12.3,9.5-21.3,42.6-11,62,10,18.8,48.4,37.7,71,45h7c35,11,76.7,18,122,18h52c10.2-2.3,17.3.4,28-2,25.8-5.8,56.7-4.3,81-10,7-.3,14-.7,21-1,16.1-4.1,36.8-7.1,53-11h9c24.6-6.8,49.8-15.9,72-24,35.8-13.1,100.6-35.3,97-82Z"/>
      <path class="st1" d="M3906.6,2304c9.9,7.3,14.4,30.3,20,43,3.3,7.4,7.7,17.8,10,26,24,87.7-46.5,133.9-96,165h-4l-4,4c-2.9,1.7-4.6.6-8,2-17.6,7.1-37.7,16.7-56,24h-7c-4.4,1.4-10.6,4.7-15,6h-7c-22.9,8.7-52.8,11.5-78,18-11.3,2.9-21.2-.2-32,2-13.7,2.8-51.6,5.9-67,3-15.9-2.9-33.1,1-47-2-8.4-1.8-24.1-.6-34-3h-16c-21.5-5.4-48.5-6.5-69-12-4.7-.3-9.3-.7-14-1-12.7-3.7-29.7-7.5-42-11h-9c-10.7-3.9-25.2-8.8-36-12-3.7-.3-7.3-.7-11-1-20.8-8.4-43.5-14.4-65-23-7-2.8-15-9.1-22-12-43.5-17.9-86.2-47.1-112-83-7.1-9.9-23.9-33.1-19-54,4.2-17.7,11.3-35.1,18-51l1,1h1c-6.3,18.8,9.8,41.4,17,51,27.7,37.2,63.6,45.3,109,64,3.7.3,7.3.7,11,1,5.4,1.4,12.3,4.5,18,6,5,.3,10,.7,15,1,24.7,6.6,56.1,4.8,83,11h41c19,3.7,42.2,1,69,1,6.7-.3,13.3-.7,20-1,14,2.2,50.7,1.3,65-2h15c8.2-1.9,19.1-2.2,27-4h14c22.3-5.3,46.2-6,69-12,20.3-5.3,43-11.9,62-18h7c9.4-3.1,20.7-8.5,30-12,2.3-.3,4.7-.7,7-1,8-4,17.3-6.8,26-11,2.3-1.1,5.7-4.9,8-6,31.4-14.6,69.7-32.7,89-59,7.8-10.6,17.8-19.5,18-38Z"/>
      <path class="st1" d="M3949.6,2478c1,.3,2,.7,3,1,.5,14.1,5.6,37,2,53-6.4,28.2-8.4,54.4-18,78-19.6,47.9-76.7,82.9-121,107-10.9,5.9-22.2,7.9-34,13-27.7,12-58.9,21.2-91,30h-10c-6.8,2.1-16.4,4.2-24,6-5.7.3-11.3.7-17,1-9.5,2.4-25.4,3.7-33,5-4.4.7-17,.6-18,0-24.6,2.9-56.6,4.6-77,1h-25c-18.6-4.2-40.4-2.8-57-7-6.7-.3-13.3-.7-20-1-48.2-12-95.9-19-140-35-26.6-9.6-54.6-22.2-78-35-6.7-3.6-12.8-4.1-19-8-11.1-6.9-22.3-15.8-33-23-27.6-18.6-51.1-39.7-71-66-16.6-21.9-18-62.3-18-101,1.6-1.4,1.1-.6,2-3h1c8.6,77,84.4,114.1,151,134,17.9,5.4,36.5,7.4,54,12,14.5,3.8,30.9,2.7,45,6h16c6.6,1.5,18.4,2.1,24,2,5.9-.1,17.8,1.7,24,3h27c15.9,3.5,38.3,1,56,1,25.5,0,60.3,2.1,82-3h13c23-5.3,52.3-3.6,74-9,9.2-2.3,16,.3,25-2,31-8,64.6-12.7,93-22h7c31-10.3,65.1-21.6,93-36,5.8-3,12.3-8.9,18-12,2.6-1.4,4.8-.5,7-2,11.6-7.6,22.4-17.5,33-26,21.4-17,42.7-35.1,54-62Z"/>
      <path class="st1" d="M3921.6,2664c2.5,1.3.7-.4,2,2-3,4.2-2.8,8.6-5,14-7.3,18-19,35.6-29,51-.3,1.7-.7,3.3-1,5-21,27.9-49.2,51.9-78,72h-3l-4,4c-3.4,2.2-7.6,1.7-11,4-14,9.4-30.7,15-47,22-18.2,7.9-39,17.8-59,24-22.9,7.2-47.3,9.8-70,17-5.7.3-11.3.7-17,1-9.8,2.2-22.1,3.7-32,6h-23c-14.3,3.1-45.4,4.7-62,1h-26c-22.1-5-45.6-2.2-67-8-47.5-12.8-93.3-21.8-134-41-14.1-6.7-28.6-16.9-42-24-4.9-2.6-9.6-2.7-14-6-4.4-3.3-9.3-9.1-14-12-32.5-19.9-56.6-45.8-77-78-7.1-11.2-18.3-25.4-21-40h2c20.8,33.2,67.1,66.4,106,82,6.9,2.8,15.2,9.1,22,12h6c20.8,8.3,45.2,17.4,68,24,30.5,8.8,63.1,10.7,95,18,14.1,3.2,29.8-.1,44,3,26.4,5.8,93.7,5.9,120,0h19c18.2-4.2,42-4.8,59-9h11c14.6-3.7,32.2-6.9,46-11,5.3-.7,10.7-1.3,16-2,23.1-8.3,49.7-13.1,72-23,23.6-10.6,47.3-22.8,68-36,27.6-17.6,63-44.5,80-72Z"/>
      <path class="st1" d="M3795.6,2836h2l-1,1c-14.1,21-50.9,43-75,55-10.1,5-21.5,13.1-32,18-20.2,9.4-42.8,15.3-64,23-18.4,6.7-41.8,8.4-61,13h-14c-26.9,5.9-66.1,6.1-93,0h-14c-10.6-2.7-22.2-2.9-34-6-36.8-9.8-70.4-22.3-102-36-6.5-2.8-12.1-3.4-18-7-9.7-5.9-19.7-11.1-30-17-10.5-6-19.7-16.4-30-23v-1h4c4.7,4.3,10.8,5.1,17,8,16.2,7.6,35.2,16.1,53,22,10.3,3.4,17.4,2.9,28,6,14.1,4.1,32.9,8.3,48,12,10.3,2.5,21.6,1.8,31,4,13.5,3.1,26.4-1.2,41,2,15.8,3.4,53.4,4.7,70,1,15-.3,30-.7,45-1,26.7-6.3,56.2-5.2,82-13,15.5-4.7,33.6-9.2,48-15,3.8-1.5,6.9-.3,11-2,7.7-3.2,17.4-9,25-12,17.9-7.1,32.6-15.4,48-24,5.4-3.1,10.8-3.9,15-8Z"/>
      <path class="st1" d="M4481.6,2050c85.2-1.6,153.5,14.6,213,39,10.4,4.3,20.6,12.7,30,18,7.1,4,13.9,6.9,20,12,1.6,1.4,2.2,4.6,4,6,2.7,2,6.1,3.4,8,6,1.7,2.3,1.1,4.1,3,6-.2,20.8-12.8,28.2-26,36-1,1.3-2,2.7-3,4-10.2,6.8-28.5,15.4-40,20-8.8,3.6-14.6,2.9-24,6-91.8,30.2-241.4,31.5-339,6-3.7-.3-7.3-.7-11-1-25.5-8.2-57-17.1-72-36-23.5-29.6,2.6-46.1,23-59,41.2-26.1,87.7-41.7,142-56,15.9-4.2,35.5-2.4,52-6,6.2-1.4,15.5,1.9,20-1Z"/>
      <path class="st1" d="M4199.6,2164c.8,1,.4.3,1,2h-1v-2Z"/>
      <path class="st1" d="M4802.6,2165c10.4,4.4,19,16.8,26,25,21,24.5,59,52.1,42,99-13,35.6-57.7,58.6-91,75-9.1,4.5-17,4.4-27,8-6.1,2.2-14.2,6.6-20,9-5.5,2.3-9.6.3-16,2-14.4,3.9-31.6,8.4-46,12-24.5,6.2-51,6.4-75,12-13.7,3.2-25.9-.8-39,2-23.5,5-70.3,4-93-1-10-.3-20-.7-30-1-26.5-6.3-57.1-6.2-83-14-19.4-5.9-40.3-9.2-60-16-14-4.8-29.6-12.8-43-18-38.8-15-73.1-37-96-68-8.8-12-21.8-30.7-15-52,6.2-19.3,21.8-29.9,33-44,7.8-9.9,18-23.7,30-29v2c-11.1,8.6-19.9,41.6-11,60,13.7,28.5,48.1,38.3,78,51,12.4,5.2,28.5,4.7,43,8,33.8,7.8,76.8,10.6,118,8,2,1.2,12.4-.8,16-1,1.8,1.1,14.5-.2,18-1h21l21-3c19.9-1.1,42.4-4.8,60-9h11c14.8-3.6,34.9-3.6,50-8,19.5-5.7,39.7-9.3,59-16,8.5-3,18.9-9,27-12,34-12.7,93.9-36.9,92-80Z"/>
      <path class="st1" d="M4906.6,2305c8.4,6.3,13.7,26.8,18,38,3.6,9.4,9.3,21.5,12,32,8.7,33.8,1.1,69.8-13,92-2.8,4.4-7.9,7.9-11,12-2.9,3.8-5.4,9-9,12-6.1,5.1-14.6,13.1-21,17-2.1,1.3-4.3.4-6,2-8.3,7.7-17.7,16.5-28,22-48.1,25.7-103.5,39.7-164,54h-12c-28.2,6.4-62.4,7-92,7-10.6,0-25.1-1.8-34-1-25.3,2.3-60.1-.8-83-6h-16c-9.2-2.1-20.9-3.9-30-6h-11c-25.5-6.1-54.7-11.3-79-18h-8c-41.3-11.7-81-25.9-117-42-46.1-20.6-89.1-44.1-117-83-7.2-10.1-23.8-31.2-19-52,4.2-18.2,13.3-34.8,18-52h1v17c5.4,7.2,7.2,21.8,12,30,7.3,12.5,27.6,30.2,40,38,33.5,21.2,74.2,31.5,118,43h9c9.4,2.2,21.7,3.7,31,6h18c16.1,3.2,36.7,1.6,59,4,10.7,1.2,31.9,1.5,51,0,15.2-1.2,39.2,1.6,55-2,2.9-.7,5.5.9,7,1,5.6.2,16.5-1.7,22-3,12.9-3,29.3.6,40-2h17c16.2-4.1,40.2-3.5,55-9,6-.3,12-.7,18-1,29.3-7.2,61.2-14.9,88-24,4.7-1.6,7.9-.3,12-2,12.1-5.1,26.4-11,38-16h5c1.8-.8,4.5-4,6-5,2-.3,4-.7,6-1,8.1-3.5,18.5-8.5,27-13,18.5-9.8,35.5-23.4,52-35,15.6-11,34.8-28.2,35-54Z"/>
      <path class="st1" d="M4949.6,2479c2.5,1.3.7-.4,2,2,3.5,5.5.4,14.4,2,22,3.1,14.2,0,35.6-3,48-.7,6.7-1.3,13.3-2,20-4.8,17.1-10.2,35.7-18,51-17.7,34.6-51.4,53.1-83,74-33.5,22.2-73.8,38.2-116,52-3.3.3-6.7.7-10,1-12.5,4-28.8,7.6-42,11h-10c-13.8,3.7-32.7,4.4-48,8-8,.3-16,.7-24,1-7.5,1.6-21.5,2.7-28,2-6.4-.7-17,1-25,1-29.1,0-59.2.7-84-5-7.7-.3-15.3-.7-23-1-36.8-8.6-76.8-11.9-110-23-4-.3-8-.7-12-1-24.2-7.9-49.8-15.1-74-24-7.6-2.8-16.6-9.2-24-12h-5c-2.3-1-5.7-4.9-8-6h-5c-2-1.1-4.9-4.9-7-6-10-4.9-20.5-7.4-29-14-1-.8-1.8-3.4-3-4-36.8-20.4-73.3-46.6-93-84-1.1-2-5-4.8-6-7-4.1-9.2-3.1-16.6-6-27-4.4-16.1-7.5-43.9-3-62h1c2.1,33.8,19.9,54,38,72,39.9,39.8,83,54.6,145,72h9c7.1,1.8,16.9,4.2,24,6,8.7.7,17.3,1.3,26,2,25.5,5.9,64.4,7,94,6,25.6-.9,57.4,3.8,82-1,13.4-2.6,35,2.6,51-1,27.9-6.3,60.4-3.5,87-10,8-.7,16-1.3,24-2,31.8-8.1,66.9-12.4,96-22,4.7-.7,9.3-1.3,14-2,21.6-8.7,45.3-14.6,67-24,2.8-1.2,6.1-4.8,9-6,11.9-4.8,22.6-8.4,33-15,.7-1,1.3-2,2-3,33.6-17.6,81-53.2,95-89Z"/>
      <path class="st1" d="M4920.6,2665c2.5,1.5,1.1-.2,2,3-5.6,6.2-6.4,16.9-10,25-1,2.3-4.9,5.7-6,8-6,12.2-11.2,22.6-18,34-2.4,4.1-8.8,9.4-12,13-21.4,24.2-44.2,45.2-72,63-14.5,9.3-31.1,13.3-47,21-21.9,10.6-47.2,22.5-72,30-25,7.6-51.6,11.6-77,18h-12c-12.5,2.8-26.8,3-40,6h-24c-13.4,2.9-39.6,3-53,0h-30c-25.4-6.1-53.7-5.4-79-12-38.3-10-77.1-20.5-111-36-2.8-1.3-6.1-4.7-9-6-6.2-2.8-12.1-3.5-18-7-9.6-5.7-19.7-11.1-30-17-5-2.9-10-9-15-12-22.3-13.5-48.2-35.1-64-55-5.8-7.3-8.6-15.1-14-23-7-10.4-15.9-22-19-36h1c17.6,27,45.8,46.5,72,65,2,.3,4,.7,6,1,33,20.5,74.7,36.1,116,48h8c14.2,3.7,32,8,47,12h10c16.3,3.9,38.5,5,56,9h14c23.6,5.2,55.2,3,83,3,15-.3,30-.7,45-1,25.5-5.8,56.4-5.1,80-11h11c13.6-3.7,30.9-7.1,44-11,5.3-.7,10.7-1.3,16-2,27.1-9.3,56.4-18.2,81-29h5c2.9-1.1,6.4-4.8,9-6,3-.7,6-1.3,9-2,23-12,44.7-26.1,66-40,6-3.9,10.3-11.7,16-16,9.3-7.1,31.3-25.9,35-37Z"/>
      <path class="st1" d="M4792.6,2838h2l-1,1c-4.8,8.9-15,15.2-23,21-5.1,3.7-10,9.4-15,13-14.3,10.2-29.6,17-46,25-6.4,3.1-14.3,9.2-21,12-29.2,12-60.6,21.6-93,30-19,4.9-38.6,3.5-58,8h-18c-21.7,4.7-71.2-1-89-6-6.4-1.8-12.1.1-19-2-26.3-8.1-54.3-13.4-79-24-24.8-10.6-49.2-22.9-72-36-10.6-6.1-19.9-16.2-30-23v-1h2c6.9,6.7,17.5,7.8,27,12,12.7,5.7,28.6,12.6,42,18h6c4.5,1.4,10.5,4.7,15,6h7c112.6,35.5,291.6,22.9,387-17,12.1-5.1,22.4-7.7,34-13,6.5-3,13.7-9.1,20-12,7.9-3.6,16.2-6.3,22-12Z"/>
      <path class="st1" d="M481.6,3050c85.2-1.6,153.6,14.6,213,39,10.4,4.3,20.6,12.7,30,18,7.1,4,13.9,6.9,20,12,1.6,1.4,2.2,4.6,4,6,2.7,2,6.1,3.4,8,6,1.7,2.3,1.2,4.1,3,6-.2,20.8-12.8,28.2-26,36-4,2.4-8.9,7.4-13,10-15.4,9.9-34,14.2-53,20-93.5,28.6-240.9,31.9-340,6-3.7-.3-7.3-.7-11-1-25.5-8.2-57-17.1-72-36-23.5-29.6,2.6-46.1,23-59,41.2-26.1,87.7-41.7,142-56,15.9-4.2,35.5-2.4,52-6,6.2-1.4,15.5,1.9,20-1h0Z"/>
      <path class="st1" d="M201.6,3162h2c-4.9,9.7-11.4,19.8-15,31-7.4,23.2,7.7,49.9,19,58h3c30.1,25.3,61.5,31.3,106,42,11.5,2.8,20.9.4,32,3,19.3,4.4,48,3,72,3h31c15.5-3.4,34.2-2.7,49-6h16c17.8-4.1,39-5.8,57-10,9.1-2.1,16.4.3,26-2,37.7-9.1,75-15.9,108-30,15.4-6.6,31-16.3,45-24h4c14.2-9.2,32.3-22.4,41-37,3.1-5.2,4.6-23.3,7-25,3.5,7.2,17.2,15.9,23,22,19.6,20.7,42,42.1,48,76,2.5,14.4-10,34.9-16,42-2,2.4-4.7,9.6-7,12-20.1,21.7-60.2,43.1-91,54-3,.3-6,.7-9,1-2.5.9-6.8,4.1-9,5h-5c-114.7,41.2-287.6,39.6-409,6-36.3-10-69.1-18.4-98-35-6.5-3.7-12.8-4.1-19-8-23.4-14.7-45.7-30-62-52-5.5-7.4-19.3-23.9-16-39,4.8-21.9,17.9-38.3,31-52,2.7-2.8,7.8-4.9,10-8,2.3-3.2,4.1-7.5,7-10,6.4-5.4,14.3-10,19-17h0Z"/>
      <path class="st1" d="M906.6,3305c8.3,6.8,13.6,26.7,18,38,3.8,9.9,9.2,21.9,12,33,20.1,80.5-36.3,117.1-78,149-5.9,4.5-13.6,5.1-20,9-23.9,14.4-54.1,23.7-83,33-3.7.3-7.3.7-11,1-28.6,8-63.7,10.8-95,18-12.5,2.9-27.6-.7-37,1-17.3,3.1-56.9,2.7-71,0h-20c-6.8-1.5-17.9.8-26-1-10.7-2.4-23.9-2.7-34-5-8-.3-16-.7-24-1-20.3-4.6-45.7-6.8-65-12-7.6-2-13.4.2-20-2-25-8.3-53.7-12.5-77-21-10-3.6-18-3-28-7-21.7-8.8-46.7-18.3-66-30-4.6-2.8-11.9-3.6-17-6-2.3-1.1-4.9-4.8-7-6-35.4-20-70-41-87-79-13.4-30.1,7.1-59.1,14-84h1v14c4,6.2,2.8,15.2,6,22,5.7,12.3,26.1,37.1,37,44,16.5,10.3,34.4,22.4,53,30,26.2,10.7,56,16.8,85,24h11c9.9,2.2,21.5,4,32,6,7.8,1.5,22.9,0,32,2h19c16.3,3.4,55.9,2.4,69,0,11.4-2.1,23.5.1,33-2h30c26.2-5.9,58.5-3.9,84-10l36-3c6.3-1.7,15-3.4,22-5h9c34.3-8.8,71.4-15.1,101-29,3.3-.7,6.7-1.3,10-2,10.6-3.9,22.1-10.1,32-15,3-.7,6-1.3,9-2,28-13.2,53.5-30.4,77-48,15.3-11.5,33.5-28.4,34-54Z"/>
      <path class="st1" d="M949.6,3479c2.5,1.3.7-.4,2,2,3.5,5.5.4,14.4,2,22,3,14.3,0,35.5-3,48-.7,6.7-1.3,13.3-2,20-4.7,17.1-10.2,35.8-18,51-17.6,34.6-51.6,54-84,74-36.3,22.5-81.5,39.1-127,52-17.7,5-36,6.7-53,11-17.8,4.5-36.3,3.1-54,7h-24c-15.6,3.3-51.1,5-69,1-7.1-1.6-17.1.3-23-1-11-.3-22-.7-33-1-22.7-5.2-49.4-5.8-71-11h-9c-6.9-1.8-16.2-4.3-23-6h-9c-20.2-5.6-44.3-11-63-18h-7c-4.1-1.2-9.2-4.7-13-6-2.7-.3-5.3-.7-8-1-33.1-13.6-69.9-25.8-97-46-5.2-3.9-11.5-4.4-17-8-29.6-19.2-62.2-45.1-79-77-1.1-2-5-4.8-6-7-3.9-8.8-3.4-16.1-6-26-2.8-10.8-9.8-53.1-2-63,2.3,36.1,20.2,51.9,38,72,35.7,40.3,88.7,62.3,149,78,22.3,5.8,47.1,5.4,69,11h11c23,5.1,51.3-.9,76,3,8.2,1.3,42.9.8,55-2h26c26.5-5.1,65-3.1,93-10,13.4-3.3,27.6-.3,41-4,26.8-7.4,55.6-8.8,83-16,59.5-15.7,113.9-35.1,164-60,11.1-5.5,21.8-17.6,32-24,22.2-13.9,49.1-39.6,59-65Z"/>
      <path class="st1" d="M920.6,3665c2.5,1.5,1.1-.2,2,3-5.6,6.2-6.2,17-10,25-5.1,10.9-12.3,23.6-19,34-19.3,29.8-53.3,61.6-83,81h-4c-15.2,8.3-30.7,16.9-48,24-11,4.5-23.6,12.2-35,17-23.9,10-50.8,15.4-76,23-6,.7-12,1.3-18,2-16.5,4.1-39.2,5.9-57,10h-13c-15.4,3.3-36.6,2-55,2s-24.1,1-33-1h-14c-10.2-2.3-22-2.8-32-5h-13c-41.2-10-84.5-15.7-121-31-41.2-17.2-78.3-36.9-114-59-3.6-2.2-6.6-7.5-10-10-31.9-23.8-60.5-54.2-76-94h2c19.1,26.2,44.8,46.7,74,63,4.3,2.4,9.9,7.1,14,10,5.2,3.8,11.9,4.4,18,7,24.6,10.6,52.4,21.9,80,30,29.3,8.6,60.9,11,91,18h15c17,3.8,38,6,58,6h42c6,1.3,13.8,0,22,0,27.9,0,53.9-.6,77-6h13c9.1-2.1,20.5-3.9,29-6h10c48.1-13.2,97.2-21.3,138-41,8-3.9,15.2-4.1,23-8,18.3-9.3,37.9-18.8,55-30,14.6-9.5,26.4-23.7,40-34,8-6,24.8-20.4,28-30Z"/>
      <path class="st1" d="M792.6,3838h2c-.3.3-.7.7-1,1-4.8,8.9-15,15.2-23,21-5.1,3.7-10,9.4-15,13-14.3,10.2-29.7,17-46,25-6.4,3.1-14.3,9.2-21,12-29.2,12-60.6,21.6-93,30-19,4.9-38.6,3.5-58,8h-18c-21.7,4.7-71.2-1-89-6-6.4-1.8-12.1.1-19-2-26.3-8.1-54.3-13.4-79-24-24.8-10.6-49.2-22.9-72-36-10.6-6.1-19.9-16.2-30-23v-1h2c6.9,6.7,17.5,7.8,27,12,12.7,5.7,28.6,12.6,42,18h6c4.5,1.4,10.5,4.7,15,6h7c112.6,35.5,291.6,22.9,387-17,12.1-5.1,22.4-7.7,34-13,6.5-3,13.7-9.1,20-12,7.9-3.6,16.2-6.3,22-12Z"/>
      <path class="st1" d="M1481.6,3050c85.2-1.6,153.6,14.6,213,39,10.4,4.3,20.6,12.7,30,18,7.1,4,13.9,6.9,20,12,1.6,1.4,2.2,4.6,4,6,2.7,2,6.1,3.4,8,6,1.7,2.3,1.2,4.1,3,6-.3,20.8-12.8,28.2-26,36-4,2.4-8.9,7.4-13,10-15.4,9.9-34,14.2-53,20-93.5,28.6-240.9,31.9-340,6-3.7-.3-7.3-.7-11-1-25.5-8.2-57-17.1-72-36-23.5-29.6,2.6-46.1,23-59,41.2-26.1,87.7-41.7,142-56,15.9-4.2,35.5-2.4,52-6,6.2-1.4,15.4,1.9,20-1Z"/>
      <path class="st1" d="M1202.6,3161c2.5,1.3.7-.4,2,2-6.2,5.9-8.1,13.5-11,23-8.2,27-2.5,48.6,13,64,23.3,23.1,61,33.8,98,43h9c9.2,2.1,20.7,3.9,30,6h12c15.6,3.4,42.6,5.8,62,3,8.8-1.3,32.4,0,46-3h21c38-8.6,81.4-8.9,118-18h10c44.6-11.3,88-22.8,125-42,21.1-10.9,46.3-29.5,60-48,4-5.3,4-23.8,7-26,3.9,8,18.2,15.8,24,23,18.4,22.7,40.6,40.1,47,75,2.6,14-11.5,38.9-17,47-1.7,1-3.3,2-5,3-28,37.4-84.5,56.7-137,70-24.9,6.3-52.9,11.7-79,18-5.7.3-11.3.7-17,1-11.8,2.8-27.8,2.9-39,5h-40c-29,0-60,1.7-84-4-10.7-.7-21.3-1.3-32-2-9.1-2.1-19.3-3.9-28-6-5.7-.3-11.3-.7-17-1-16.5-5.3-35.7-6.4-53-12-36.4-11.8-73.6-22.5-104-40-29.2-16.8-53.1-27.6-73-54-6.9-9.2-21.1-24-16-44,4-15.6,20.9-36.5,31-47,2.7-2.8,7.8-4.9,10-8v-3c1.4-1.6,4.6-2.2,6-4,2.1-2.7,4.4-6.8,7-9h3c1.3-.9,9.9-10.4,11-12Z"/>
      <path class="st1" d="M1906.6,3305c9.1,7.5,13.9,28.8,19,41,3.6,8.7,8.4,20.2,11,30,22.3,82.9-47.5,133.8-99,157-10.4,4.7-23.2,10.9-34,16-3.7.7-7.3,1.3-11,2-16.7,7.1-38.4,11.9-57,17-23.6,6.5-51.2,6.4-75,12h-15c-20.1,4.4-57.3,7.9-75,5h-26c-15.9-2.4-35.3-.6-50-4-10.3-.3-20.7-.7-31-1-25-5.7-55.6-5.6-79-12h-12c-23.8-6-51.1-10.9-73-18-11.2-3.6-20.4-3-31-7-15.8-5.9-32.4-10.6-49-17-8-3.1-16.9-8.9-25-12-44.1-16.9-84.2-39.6-110-75-.8-1.1-3.1-1-4-2-4.9-5.5-18.6-32.6-16-44,2.1-9.4,6.3-19.6,9-28,3.7-11.8,5.9-26.3,13-35-1.4,74.4,70.9,106.6,130,125,47.4,14.7,101,24,164,24h59c31.9-6.1,76.3-3.3,109-11,7.3-.3,14.7-.7,22-1,29-7.8,64.2-8.7,92-17,4.3-.3,8.7-.7,13-1,20.4-5.8,42.8-10.8,63-18,18.1-6.5,37.2-16.4,54-24,32.3-14.6,70.8-31.7,91-58,1.7-1,3.3-2,5-3,8.3-10.1,17.6-23.6,18-41Z"/>
      <path class="st1" d="M1949.6,3479c2.5,1.3.7-.4,2,2,3.5,5.5.4,14.4,2,22,3,14.3,0,35.5-3,48-.7,6.7-1.3,13.3-2,20-4.7,17.1-10.2,35.8-18,51-1,1.9-4.9,4.2-6,6v4c-6.7,12-25.2,29.5-36,38h-3c-1.6,1-2.5,3.9-4,5-1.7.3-3.3.7-5,1-4.4,3.4-9.2,9.1-14,12-5.1,3-9.9,3.8-15,7-38.7,24.4-87.6,39.2-137,53h-8c-5.9,1.5-14.2,4.4-20,6h-10c-13.9,3.4-32.6,4.4-48,8-7.3.3-14.7.7-22,1-7,1.5-20.6,2.9-27,2-2.1-.3-9.2,1-13,1-22.3-.3-44.7-.7-67-1-34.4-7.3-81.5-5.8-116-15-7.4-2-14.2.4-22-2-29.8-9.1-62-13.5-91-24-32.8-11.9-65-26.6-94-42-41.5-22-83.1-48.4-105-90-1.1-2-5-4.8-6-7-3.9-8.9-3.2-16-6-26-2.9-10.6-9.8-53.2-2-63,3.3,45.5,41.1,84.6,73,102,4.3,2.3,9.1,8,13,11,2,.3,4,.7,6,1,4.6,2.9,13.2,9.8,18,12h5c2.3,1.1,5.2,5,8,6,17.6,6.4,35.2,12.8,53,18,17.2,5,35.9,6.9,53,11,21.4,5.2,45.8,2.4,67,7h79c24,0,49.6-1.3,71-6h16c11.6-2.6,25.9-3.4,37-6h12c14-3.2,31-4.2,45-8h9c15.7-5.6,33.4-5.4,51-10,29.2-7.6,60.4-14.4,89-24,23.9-8.1,48.4-20.9,71-30,43.9-17.7,103.2-57.8,120-101Z"/>
      <path class="st1" d="M1920.6,3665c2.5,1.5,1.1-.2,2,3-5.6,6.2-6.2,17-10,25-5.1,10.9-12.3,23.6-19,34-19.3,29.8-53.3,61.6-83,81h-4c-15.2,8.3-30.8,16.6-48,24-10.8,4.6-23.7,12.3-35,17-24.1,10.1-51.4,15.3-77,23-22.5,6.8-48.6,5.6-72,11h-11c-21.3,4.6-64.9,6-87,1h-14c-8.4-1.9-19.1-2.2-27-4h-14c-26.3-6.2-55.2-10.6-79-18h-8c-52.1-16.9-100.7-37.7-142-65-33.6-22.2-63-44.2-83-80-5.1-9.1-13-17.6-16-29h1c1,.8.3.4,2,1,2.7,8.6,26.2,29.7,34,35,3.7,3.7,7.3,7.3,11,11,5.1,3.5,11.4,4.9,16,9,.3,1,.7,2,1,3,5.2,3.6,10.2,4,16,7,2.1,1.1,4.8,4.8,7,6,9.6,5.1,18.6,7.7,29,12,2.8,1.1,6.2,4.9,9,6,8.1,3.1,13.9,3.1,22,6,138.1,48.8,342.8,47.9,484,0,31.5-10.7,61.2-18.3,87-34,13.4-8.2,27.2-12.6,40-21,14.6-9.5,26.4-23.7,40-34,7.9-6,24.8-20.4,28-30Z"/>
      <path class="st1" d="M1792.6,3838h2c-.3.3-.7.7-1,1-4.8,8.9-14.9,15.2-23,21-5.1,3.7-9.9,9.4-15,13-14.3,10.2-29.7,17-46,25-6.4,3.1-14.3,9.2-21,12-29.2,12-60.6,21.6-93,30-19,4.9-38.6,3.5-58,8h-18c-21.7,4.7-71.2-1-89-6-6.4-1.8-12.1.1-19-2-26.3-8.1-54.3-13.4-79-24-24.8-10.6-49.2-22.9-72-36-10.6-6.1-19.8-16.2-30-23v-1h2c6.9,6.7,17.5,7.8,27,12,12.7,5.7,28.6,12.6,42,18h6c4.5,1.4,10.4,4.7,15,6h7c112.6,35.5,291.7,22.9,387-17,12.1-5.1,22.4-7.7,34-13,6.5-3,13.7-9.1,20-12,7.9-3.6,16.2-6.3,22-12Z"/>
      <path class="st1" d="M2481.6,3049c80.3-1.6,160.9,14.4,215,40,6,2.9,13.2,9,19,12,15.5,8.1,45.1,22.6,45,45-2.6,2.7-2,5.5-4,9-1.7,3-14.9,15.8-18,18h-4c-1.3,1.7-2.7,3.3-4,5-1.7.3-3.3.7-5,1-5.2,2.8-11.9,7.9-17,11-3,.7-6,1.3-9,2-6.3,2.8-15.3,7.5-22,10-3,.3-6,.7-9,1-42.9,16.5-109.7,24-168,24-45.2,0-90.3,1.7-127-8-10.4-2.8-18.2-1.3-29-4-33.9-8.5-68.5-16.2-91-36-1.3-.3-2.7-.7-4-1-6.7-5.1-21.4-25.4-13-38,5.3-14.5,26.3-26.1,40-33,2.2-1.1,4.8-4.9,7-6,6.6-3.2,11.7-3.4,18-7,1.7-1,4.3-4.2,6-5,33.1-15.6,69.3-24.2,108-34,11.7-2.9,27.4-2.9,39-4,7.5-.7,22.1,1.1,27-2Z"/>
      <path class="st1" d="M2206.6,3157c2.5,1.3.7-.4,2,2-5.1,4.7-6.3,10.7-9,18-9.9,26.1-9.8,54.6,8,73,20.8,21.5,52.7,33.1,85,43h9c7,1.7,15.8,4.3,23,6h13c13.4,3.2,27.8,6.8,42,5,17.2-2.1,41.2,5.2,60,1,19.3-4.3,39-1.3,58-6h17c29.9-7,65.9-7.8,94-17,6-.7,12-1.3,18-2,19-6.2,39.8-10.2,59-17,8-2.8,17.5-8.9,25-12,7.8-3.2,13.8-4,21-8,4.4-2.4,9.7-7.5,14-10,1.7-.3,3.3-.7,5-1,16.5-12.4,34.3-23.7,46-41,3.5-5.2,4.9-26.5,7-28,3.9,7.1,16.6,16.5,23,22,16.8,14.5,43.1,47.3,49,72,4.7,19.8-7.4,38.9-15,48-1.4,1.7-.6,4.2-2,6-16.1,20.6-53.1,43-79,54h-5c-7.6,2.8-18.5,7.7-26,11-3.7.7-7.3,1.3-11,2-28.1,13.3-68.7,15.3-102,23h-17c-5.1,1.1-13.1,1.9-18,3h-20c-15.3,3.3-29.8-.3-46,1-12.8,1-38.6.5-54-3-10.3-.3-20.7-.7-31-1-10.7-2.4-23.8-3.5-34-6-8.9-2.1-16.1.6-24-2-19.2-6.2-43.2-8-61-15-5.3-.7-10.7-1.3-16-2-16.2-6.5-33.9-10.5-51-17-7.4-2.8-16.9-8.9-24-12-39.9-17.4-94-42-106-86-4.8-17.7,5.4-29.2,11-37,12.2-16.8,25-33,40-47,6.8-6.4,16.7-12.3,22-20Z"/>
      <path class="st1" d="M2906.6,3304c10.3,7.7,13.8,30.3,20,43,3.7,7.5,7.7,18.3,10,27,23.3,89.9-44.5,125.4-96,157-6.5,4-15.6,4.9-23,8-21.1,8.8-46.3,16.4-70,23h-7c-6.4,1.6-15,4.2-21,6h-11c-39.1,9.1-82.2,12-130,12-18,0-40.8,2.5-57-1h-27c-30.6-6.8-67.2-3.9-96-11h-13c-14.7-3.9-34.3-5.9-48-11-6-.7-12-1.3-18-2-15.5-5.1-35.1-9.4-50-15-5-1.9-9.6,0-15-2-19.8-7.7-42.9-15.9-62-24h-5c-6.2-2.7-14.1-8-20-11-3-.7-6-1.3-9-2-1-1.3-2-2.7-3-4-4.7-3.1-10.1-3.2-15-6-11.2-6.3-21-16.6-31-24-9.3-6.9-17.6-12.3-24-22-.8-1.2-3.1-1-4-2-6.2-6.6-21.6-33-18-48,2.4-9.8,6.7-21.7,10-30v-6c2.2-7.3,11-33.1,16-37l1-1v3c-2.4,3.8-1.1,14.3-1,20,.3,21.3,11.4,33.4,20,46,27.3,39.9,85.5,61.9,138,77,9.8,2.8,18.3,3.8,27,6,4.7.3,9.3.7,14,1,12.4,3.5,32.7,6.6,46,6,.9,0,8.1,1.8,9,2,11.3,2.6,30.1,1.9,37,1,5.1-.7,18.8,1.3,24,2,5.3.7,19.2-1.5,22-2h25c14.7-3.3,33.9-1.5,49-5,9-2.1,15.9.3,25-2,27.6-7,59.6-7.7,86-15h12c31-8.4,64.9-14.1,93-24,9.2-3.2,16-2.3,25-6,12.9-5.2,28.4-12.9,41-18,11.7-4.8,22.6-6.8,33-13,8.6-5.1,17.7-12.2,26-17,19.4-11.1,39.4-25.2,52-43,7.3-10.4,8.3-22.5,13-36Z"/>
      <path class="st1" d="M2950.6,3477c2.2,1.9,2.1,3.7,2,8,3,4.4,2,13.8,2,21,0,18.3-.4,35.2-4,49-.7,6.3-1.3,12.7-2,19-10,35-24.8,65.2-48,87-7,6.6-16.1,10.4-24,16-4.1,2.9-8.7,8.5-13,11-1.7.3-3.3.7-5,1-41.8,30.1-96.6,41.8-153,58-5,.3-10,.7-15,1-7,1.6-16.1,4.2-23,6-13.8,3.5-27.3.6-41,4-8.1,2-21.6-.2-32,2-15.6,3.4-37.4,2-56,2h-25c-27.1-4.7-66.6-1.3-96-8-6.7-.3-13.3-.7-20-1-28.2-7.4-58.1-9.1-86-17-49.9-14.2-98.8-31.2-140-54-50.9-28.2-98.5-57.1-116-119-3.1-11-10.7-58.9-2-70,8.4,71.6,78.9,116.2,135,141,15.5,6.9,32.8,10.7,48,17,5.3.7,10.7,1.3,16,2,12.9,5,31.6,7.4,46,11h13c24.8,5.6,51.6,6,79,6h40c6.7-1.3,22.6.4,33-2,24.6-5.6,53.9-4.6,77-10h10c28.2-6.7,60.6-9.9,87-18,6.9-2.1,11.4.1,18-2,8.7-2.8,20.8-6.3,29-9,5.3-.7,10.7-1.3,16-2,101.3-34.4,201.9-62.4,250-150Z"/>
      <path class="st1" d="M2922.6,3663c2.5,1.3.7-.4,2,2-4,4.6-3.2,9.7-6,16-6.7,15.4-15.6,31.4-24,46-19.2,33.1-58.5,63.4-90,85l-9,3c-12.1,6.3-25.4,11.2-38,18-32.5,17.4-71.3,26.5-110,39-7.1,2.3-13.3-.3-21,2-8.3,2.5-19.5,3.8-29,6-7,.3-14,.7-21,1-23,5.3-71.7,6.9-93,2h-18c-11.5-2.7-26.2-.9-39-4-16.8-4.1-37.2-6.7-53-11h-9c-18.3-5.7-39.7-12.2-57-18-3-.3-6-.7-9-1-7.2-3-16.8-8.4-24-11-29.9-10.9-57.9-23.2-81-41-1.7-.3-3.3-.7-5-1l-6-6c-4.5-2.5-7.9-3.1-12-6-1-1.7-2-3.3-3-5-19.6-14.2-37.5-29.9-52-49-.3-1.7-.7-3.3-1-5-6.9-9.6-17-20.9-20-34l1-1c11.1,10.8,20.4,23.7,32,34,8.4,7.4,17.6,12.6,27,19,1.3,1.7,2.7,3.3,4,5,16.4,9.1,30.7,16.7,49,24,3,1.2,6,4.9,9,6,23.8,8.8,49.1,15.3,73,24h9c6.3,1.7,14.4,4.4,21,6h9c24.2,6.5,54.8,6.1,81,12h29c13.7,2.9,60.4,3,74,0h29c29.6-6.7,61.9-4.5,91-12,22.9-5.9,48.8-11.6,70-18,3.3-.3,6.7-.7,10-1,21.8-7.9,45-14.5,67-23,58-22.4,106.5-58.8,143-103Z"/>
      <path class="st1" d="M2795.6,3836c2.5,1.3.7-.4,2,2-10.4,3.6-17,18.2-26,24-21.1,13.4-45.4,32.5-69,42-24.7,10-50.1,19.6-76,29-3.3.3-6.7.7-10,1-14.9,4.1-34.2,8-50,12-7.3.3-14.7.7-22,1-18.6,4.1-48.7,5.4-68,1-11.7-.7-23.3-1.3-35-2-42.2-10.7-83.5-17.8-118-35-3.3-.7-6.7-1.3-10-2-19.9-12-41.6-22-60-35-7.3-5.1-19.1-8.8-23-17l-1-1h5c5.5,6.5,17.4,8.6,26,12,13.6,5.3,29.6,13.2,44,18,10,3.3,17.5,3,28,6,117.2,33.6,302.9,24.5,397-23,7.1-3.6,12.8-3.7,20-7,9.5-4.4,20.1-11.7,29-17,5.9-3.5,12.2-4.5,17-9Z"/>
      <path class="st1" d="M3481.6,3050c85.2-1.6,153.6,14.6,213,39,10.4,4.3,20.6,12.7,30,18,7.1,4,13.9,6.9,20,12,1.6,1.4,2.2,4.6,4,6,2.7,2,6.1,3.4,8,6,1.7,2.3,1.1,4.1,3,6-.3,20.8-12.8,28.2-26,36-4,2.4-8.9,7.4-13,10-15.4,9.9-34,14.2-53,20-93.5,28.6-240.9,31.9-340,6-3.7-.3-7.3-.7-11-1-25.5-8.2-57-17.1-72-36-23.5-29.6,2.6-46.1,23-59,41.2-26.1,87.7-41.7,142-56,15.9-4.2,35.5-2.4,52-6,6.2-1.4,15.4,1.9,20-1Z"/>
      <path class="st1" d="M3205.6,3159c1.1,2.6-10.3,27.2-12,34v15c0,26.7,8.8,37,23,49,1,1.7,2,3.3,3,5,24.8,18.1,54.9,27.6,89,37h9c8.9,2.1,20.5,3.8,30,6h12c10.4,2.2,24.7-.6,37,2,6.8,1.4,20.6,2.6,29,1,5.7-1.1,25,.1,32-1,21.9-3.4,47.2-3.4,67-8h13c36.9-8.9,74.8-13.4,111-24,36.9-10.9,71.4-24.6,102-42,13.7-7.8,39.2-28.6,47-42,3.1-5.3,4.7-24.3,7-26,3.9,8,18.2,15.8,24,23,18.4,22.7,40.6,40.1,47,75,2.6,14.2-10.1,34.9-16,42-2,2.4-4.7,9.6-7,12-20.2,21.8-60.1,43-91,54-3,.3-6,.7-9,1-2.5.9-6.8,4.1-9,5h-5c-50,18-112.7,25-175,25-27.7-.3-55.3-.7-83-1-27.3-6.1-59.5-5.8-85-12h-11c-25-6.3-52.5-9.9-77-18-25.4-8.3-51.8-18.8-75-29-31.8-14-71-30.7-87-60-4.8-8.8-16.2-20.6-12-38,3.7-15.1,15.1-24.9,24-35,.3-1.3.7-2.7,1-4,1.7-1,3.3-2,5-3,2.9-3.4,4.6-8.2,8-11,1.3-1.1,3.1-.7,4-2v-3c1.4-1.6,4.6-2.2,6-4,2.1-2.7,4.4-6.8,7-9,5.6-4.8,12.5-8.2,17-14Z"/>
      <path class="st1" d="M3906.6,3305c8.4,6.9,13.6,27.4,18,39,3.8,9.8,9.1,21.9,12,33,13.1,50.5-10.3,92.5-36,114h-3c-2.8,1.9-6.4,6.7-9,9-4.4,4-12.9,8-18,12-9.5,7.4-23.1,10.4-34,16-38.9,20-85.7,28.3-134,40h-12c-11.6,2.7-26.8,4.6-39,6-10,1.2-26.7-1.1-39,1-15.5,2.6-41.4,3-60,1-8.6-.9-18.2,1.6-26,0-13.4-2.7-28.5.9-41-2h-22c-14.3-3.3-31.2-2.7-44-6h-17c-18.3-4.5-41.5-7.5-59-12h-11c-20.8-6.5-45.5-12-66-18h-7c-21.9-7.1-46.1-15.5-66-24h-6c-3.1-1.1-6.2-4.8-9-6-37-15.8-78.6-37.1-99-69-.8-1.2-3.1-1-4-2-3.2-3.7-13.7-28.6-12-36,3.5-15.3,7.7-31.4,13-45,4.6-11.9,6.3-27.9,14-37-.2,12.9-2.8,26.9,1,39,11.4,35.9,53.1,69.3,85,85,8.1,4,16.6,7.8,24,11,3.7.7,7.3,1.3,11,2,23.5,11.1,54.5,16.1,82,23h10c7.6,1.7,18.1,3.2,25,5,15.7.7,31.3,1.3,47,2,13.4,2.7,44.8,3,61,0,4.4-.8,14,1.6,21,0,6.2-1.4,16.6.7,24-1,9.4-2.1,21.1-2.9,30-5,7-.3,14-.7,21-1,20.6-4.7,44.9-6.9,65-12h11c19.1-4.8,39.9-6.6,60-12,37.1-9.9,74.2-22.3,107-36,42.8-17.9,85.5-36.1,111-71,8.6-11.8,19.2-23.2,20-43Z"/>
      <path class="st1" d="M3949.6,3479c2.5,1.3.7-.4,2,2,3.5,5.5.4,14.4,2,22,3,14.3,0,35.5-3,48-3.7,15.5-3.3,28.1-8,42-15.3,45.7-45.1,72.9-84,95-1.9,1.1-4.2,4.9-6,6-2,.3-4,.7-6,1-16.5,12.1-40,21-60,29h-6c-16.9,5.6-38.1,11.1-56,17-4.3.3-8.7.7-13,1-19.9,4.8-44.9,7.2-66,12h-15c-17.7,4-64.3,8.3-83,5-7.1-1.3-22.4,1-28,0h-34c-7.2-1.6-17.8-1.4-25-3h-16c-18.2-4.1-40.1-4.1-57-8h-10c-24.5-6.2-52.2-11.4-75-18h-7c-4.9-1.4-10.9-4.6-16-6h-7c-2-.8-6.2-4.2-8-5-3-.3-6-.7-9-1-4-1.4-9.7-4.7-14-6h-5c-3-1.1-6.2-4.9-9-6h-5c-3.4-1.2-7.6-4.8-11-6h-5c-5.8-2.6-13.4-8.1-19-11-7.2-3.6-13.4-4.1-20-8l-5-5c-38.2-20-75.1-46-95-84-1.1-2-5-4.8-6-7-3.8-8.7-3.5-15.1-6-25-2.8-11-9.9-54.1-2-64,2.1,35.2,20.9,53,38,73,31.8,37.3,78.8,59.1,130,77,17.8,6.2,39.4,12.8,59,18h9c8.3,1.9,18.8,4,27,6,8.7.3,17.3.7,26,1,16.7,3.7,50.8,5,62,3h25c16.6,0,34.5-.6,49-4h19c21.5-5.2,48.4-6.8,69-12,5.3-.3,10.7-.7,16-1,18.4-6,42-8.8,60-15,5.8-2,10.9.3,17-2,19.8-7.4,42-10.9,63-18,25.9-8.8,52.9-19.6,77-30,11.7-5.1,21.4-7.3,33-12,25.8-10.5,49.8-27.1,71-43,1.4-1.1,1.7-3.9,3-5h3c1.7-1.2,1.7-3.4,3-5,3.1-3.7,9.2-6,12-10v-3c9-10.8,19.4-20.7,25-35Z"/>
      <path class="st1" d="M3920.6,3665c2.5,1.5,1.1-.2,2,3-5.6,6.1-6.3,17-10,25-5.1,10.9-12.3,23.6-19,34-19.2,29.7-53.4,61.7-83,81-12.7,8.3-28.1,11.9-42,19-25.6,13-55.3,25.6-85,35h-8c-12,3.4-28.1,7.6-41,11-11.9,3.2-21.9,1.3-34,4-17.4,3.9-66.5,8.2-82,5h-31c-11-2.4-24.6.8-37-2-10-2.3-23.1-3.7-33-6h-11c-24.4-5.9-51.2-11.4-74-18h-6c-32-10.6-63.1-23.1-93-36-6.4-2.8-13-8.8-19-12-37-19.6-70.9-42.5-94-76-6.8-9.8-20.8-23.6-23-37h1c17.3,25.6,51.6,49.9,80,65,31,16.5,66.7,31.1,104,42,30.1,8.8,63.2,9.7,95,17,15,.7,30,1.3,45,2,20.4,4.4,75.7,4.5,96,0h18c17.6-3.9,38.3-3.2,54-7h13c20.2-4.9,42.6-6,63-12,37.4-11,76.2-22.4,110-36,27.7-11.1,52.6-21.7,76-37,14.6-9.5,26.4-23.7,40-34,7.9-6,24.8-20.4,28-30Z"/>
      <path class="st1" d="M3792.6,3838h2l-1,1c-4.8,8.9-14.9,15.2-23,21-5.1,3.7-9.9,9.4-15,13-14.3,10.2-29.6,17-46,25-6.4,3.1-14.3,9.2-21,12-29.2,12-60.6,21.6-93,30-19,4.9-38.6,3.5-58,8h-18c-21.7,4.7-71.2-1-89-6-6.4-1.8-12.1.1-19-2-26.3-8.1-54.3-13.4-79-24-24.8-10.6-49.2-22.9-72-36-10.6-6.1-19.9-16.2-30-23v-1h2c6.9,6.7,17.5,7.8,27,12,12.7,5.7,28.6,12.6,42,18h6c4.5,1.4,10.4,4.7,15,6h7c112.6,35.5,291.6,22.9,387-17,12.1-5.1,22.4-7.7,34-13,6.5-3,13.7-9.1,20-12,7.9-3.6,16.2-6.3,22-12Z"/>
      <path class="st1" d="M4481.6,3050c85.2-1.6,153.5,14.6,213,39,10.4,4.3,20.6,12.7,30,18,7.1,4,13.9,6.9,20,12,1.6,1.4,2.2,4.6,4,6,2.7,2,6.1,3.4,8,6,1.7,2.3,1.1,4.1,3,6-.3,20.8-12.8,28.2-26,36-4,2.4-8.9,7.4-13,10-15.4,9.9-34,14.2-53,20-93.5,28.6-240.9,31.9-340,6-3.7-.3-7.3-.7-11-1-25.5-8.2-57-17.1-72-36-23.5-29.6,2.6-46.1,23-59,41.2-26.1,87.7-41.7,142-56,15.9-4.2,35.5-2.4,52-6,6.2-1.4,15.5,1.9,20-1Z"/>
      <path class="st1" d="M4205.6,3158c2.1.4,1.9.2,3,1-5.6,4.3-6.6,13.3-9,21-9.4,30.7-3.8,54,12,74,23.3,29.4,70.8,41,114,51,15.6,3.6,29.3.6,45,4,16.4,3.6,37.1,2,56,2h21c5.3-1.2,14.5.5,21-1,25.9-5.8,56.9-5,81-11h10c14.8-3.8,33-8,47-12,4-.3,8-.7,12-1,46.7-15.7,92.5-30.5,132-53,13.7-7.8,39.2-28.6,47-42,3.1-5.3,4.7-24.3,7-26,3.5,7.2,17.2,15.9,23,22,19.6,20.7,42.1,42.1,48,76,2.5,14.4-10,34.8-16,42-2,2.4-4.7,9.6-7,12-20,21.6-60.2,43.2-91,54-3,.3-6,.7-9,1-2.5.9-6.8,4.1-9,5h-5c-39.8,14.2-96.4,21-149,21-19.9,0-45,2.9-63-1-12-.3-24-.7-36-1-6.2-1.4-16.5.6-24-1-15-3.3-32.7-2.8-47-6h-14c-18-4.2-38.9-7.6-56-12h-8c-18.5-5.8-40.1-12.1-58-18h-6c-13.9-5.4-30.4-12.8-44-18-43-16.5-88.3-36.4-100-84-4.3-17.6,7.5-28.4,14-36,6.5-7.7,11.1-16.7,18-24,2.7-2.8,7.8-4.9,10-8,2.3-3.2,4-7.5,7-10,5.8-4.9,20.2-14.2,23-21Z"/>
      <path class="st1" d="M4906.6,3305c9.4,9.4,12.8,25.6,18,39,3.7,9.7,9.1,22.1,12,33,22.6,85.5-47.9,125.7-99,149-2.6,1.2-6.4,4.9-9,6-34.8,15.1-77.4,20.1-117,30h-12c-11.1,2.6-25.4,3.4-37,6-13.3.7-26.7,1.3-40,2-21.9,4.8-45.2,2.2-73,3-9.1.3-17.2,1.9-26,0h-20c-13.8,0-26.6-.4-38-3h-17c-18-4.1-40.3-4-57-8h-12c-29.2-6.9-61.3-10.7-89-18-6.2-1.6-10.2-.2-16-2-24.7-7.5-50-13.3-74-22-7.5-2.7-16.9-9-24-12-38.3-16.4-73.6-35.8-97-67-5.7-7.6-20.2-23.4-16-40,4.6-18.1,10.4-37,16-53,4.3-12.3,5.8-26.3,13-36-.4,10-3.8,25.8-1,37,12.8,52,58.6,80.4,104,100,2.4,1,4.8,4,7,5,16.1,7.2,34.4,12.1,51,18,4,.3,8,.7,12,1,13.8,3.8,32.2,7.4,47,11l36,3c22.2,4.9,50,4,77,4s33.7.9,47-2h16c20.2-4.7,46.1-5.5,65-10,5.7-.3,11.3-.7,17-1,29.5-8.4,62.9-12.7,91-22,5.3-.7,10.7-1.3,16-2,18.9-6.3,38.4-10.3,58-17,13.8-4.7,29.8-12.9,43-18,39.5-15.2,70.9-32.9,98-60,13.6-13.7,28.3-28.6,30-54Z"/>
      <path class="st1" d="M4949.6,3479c2.5,1.3.7-.4,2,2,3.5,5.5.4,14.4,2,22,3,14.2,0,35.6-3,48-3.9,15.5-3.3,28.1-8,42-15.4,45.7-45,72.8-84,95-1.9,1.1-4.2,4.9-6,6-2,.3-4,.7-6,1-23,14.1-51.1,24.7-79,34-28.6,9.5-60.9,11.6-91,19-10,.3-20,.7-30,1-11.4,2.5-25.4,2.3-37,5h-26c-19.6,3.4-60,5.1-78,2h-31c-10.7-2.4-25.6,1.1-38-2-10.6-2.7-25.1-3.4-36-6h-11c-37.5-9.1-77.1-13.1-113-24-15.4-4.7-32.9-12.2-47-18h-6c-7.4-3-16.5-9.2-24-12h-5c-6.5-2.9-14.5-9.2-21-12-43.9-18.9-84.4-48.7-106-90-1.1-2-5-4.8-6-7v-5c-1.2-3.5-4.9-8.4-6-12v-8c-2.7-11-9.9-54.1-2-64,2.5,35.3,20.8,52.8,38,73,35.2,41.2,88,63.4,145,83,18.8,6.5,41.6,12.5,62,18h9c9.6,2.2,22,3.8,32,6h15c8.3,1.8,20.1.4,29,2,11.4,2.1,21.5,2.3,29,1h38c25.5-5.7,56.4-3.5,80-9h11c36.9-9.3,74.3-13.7,110-24,22.5-6.5,48-14.6,69-23,3.7-.7,7.3-1.3,11-2,7.6-3.1,17.5-8.3,25-11h5c12.4-5.2,26-12.8,38-18h5c8.7-3.2,18.2-8,28-12,30.8-12.6,65.4-35.8,86-59,11.3-12.7,24.3-24.7,31-42Z"/>
      <path class="st1" d="M4920.6,3665c2.5,1.5,1.1-.2,2,3-5.6,6.2-6.2,17-10,25-5.1,10.9-12.3,23.6-19,34-19.2,29.8-53.3,61.6-83,81h-4c-5.2,2.8-11.6,8.3-17,11-10.8,5.5-21.1,7.7-32,13-64.7,31.3-141.2,48-238,48-31.1,0-60.8-.2-86-6-7-.3-14-.7-21-1-41.3-10.6-83.4-15.7-121-30-31.2-11.8-61.5-26-90-41-5-2.6-10-9.1-15-12-31.4-18.2-59.2-42.2-77-74-3.2-5.7-8.8-10.9-11-18h2c5.4,11.4,23.4,23.9,33,32,1.6,1.4,2.2,4.6,4,6,4.5,3.4,9.9,5.3,14,9,.3,1,.7,2,1,3,23.2,15.1,46.6,25.7,75,36,2.3.8,5.9,4,8,5,9.7,4.6,18.5,4.2,29,8,10,3.6,23.3,8.1,34,11,21.2,5.8,45,7.2,66,12,9,.3,18,.7,27,1,11.3,2.6,29.4,1,40,3,19.6,3.6,60.8,3,79-1h20c13.4-3,30.2-.4,45-4,20.5-5,43.9-5.5,65-11,50.4-13,103.5-24.4,146-46,7.6-3.9,14.3-4.3,22-8l4-4c10.6-6.5,21.9-9.3,32-16,1-1.3,2-2.7,3-4,1.7-.3,3.3-.7,5-1,14.6-9.5,26.4-23.7,40-34,8-6,24.8-20.4,28-30Z"/>
      <path class="st1" d="M4792.6,3838h2l-1,1c-4.8,8.9-15,15.2-23,21-5.1,3.7-10,9.4-15,13-14.3,10.2-29.6,17-46,25-6.4,3.1-14.3,9.2-21,12-29.2,12-60.6,21.6-93,30-19,4.9-38.6,3.5-58,8h-18c-21.7,4.7-71.2-1-89-6-6.4-1.8-12.1.1-19-2-26.3-8.1-54.3-13.4-79-24-24.8-10.6-49.2-22.9-72-36-10.6-6.1-19.9-16.2-30-23v-1h2c6.9,6.7,17.5,7.8,27,12,12.7,5.7,28.6,12.6,42,18h6c4.5,1.4,10.5,4.7,15,6h7c112.6,35.5,291.6,22.9,387-17,12.1-5.1,22.4-7.7,34-13,6.5-3,13.7-9.1,20-12,7.9-3.6,16.2-6.3,22-12Z"/>
    </g>
  </g>
</svg>